<?xml version="1.0" encoding="UTF-8" standalone="no"?>
<svg
   xmlns:dc="http://purl.org/dc/elements/1.1/"
   xmlns:cc="http://creativecommons.org/ns#"
   xmlns:rdf="http://www.w3.org/1999/02/22-rdf-syntax-ns#"
   xmlns:svg="http://www.w3.org/2000/svg"
   xmlns="http://www.w3.org/2000/svg"
   xmlns:sodipodi="http://sodipodi.sourceforge.net/DTD/sodipodi-0.dtd"
   xmlns:inkscape="http://www.inkscape.org/namespaces/inkscape"
   version="1.0"
   viewBox="0 0 401.24976 474.52704"
   preserveAspectRatio="xMidYMid meet"
   id="svg26"
   sodipodi:docname="josefina.svg"
   inkscape:version="1.0 (262b4497e3, 2020-09-04)">
  <metadata
     id="metadata32">
    <rdf:RDF>
      <cc:Work
         rdf:about="">
        <dc:format>image/svg+xml</dc:format>
        <dc:type
           rdf:resource="http://purl.org/dc/dcmitype/StillImage" />
      </cc:Work>
    </rdf:RDF>
  </metadata>
  <defs
     id="defs30" />
  <sodipodi:namedview
     pagecolor="#ffffff"
     bordercolor="#666666"
     borderopacity="1"
     objecttolerance="10"
     gridtolerance="10"
     guidetolerance="10"
     inkscape:pageopacity="0"
     inkscape:pageshadow="2"
     inkscape:window-width="1280"
     inkscape:window-height="998"
     id="namedview28"
     showgrid="false"
     inkscape:zoom="1.0579073"
     inkscape:cx="229.8071"
     inkscape:cy="350.98757"
     inkscape:window-x="1920"
     inkscape:window-y="0"
     inkscape:window-maximized="1"
     inkscape:current-layer="svg26" />
  <g
     transform="matrix(0.1,0,0,-0.1,-112.7,550.37703)"
     fill="#000000"
     stroke="none"
     id="g24"
     style="stroke:none">
    <path
       d="m 3035,5499 c -101,-9 -241,-46 -317,-85 -62,-32 -141,-104 -174,-160 -50,-85 -66,-252 -44,-449 6,-49 13,-97 15,-106 4,-13 -14,-24 -82,-49 -598,-224 -1056,-716 -1233,-1326 -58,-198 -73,-316 -73,-559 0,-244 15,-361 74,-563 216,-750 863,-1311 1644,-1427 146,-22 424,-22 569,0 430,65 799,246 1110,545 629,604 794,1541 411,2325 -176,361 -447,652 -802,861 -75,44 -251,127 -334,157 -15,5 -15,12 -3,74 8,37 17,122 20,188 13,263 -57,404 -249,496 -138,66 -339,95 -532,78 z m 343,-199 c 148,-41 218,-96 247,-192 15,-53 20,-180 9,-261 l -7,-46 -51,43 c -28,24 -73,58 -101,75 -55,35 -189,81 -235,81 -35,0 -40,7 -49,68 l -7,47 -18,-52 c -17,-51 -18,-52 -64,-58 -26,-3 -66,-10 -89,-15 -23,-6 -44,-10 -47,-10 -3,0 -15,33 -28,73 l -23,72 -3,-85 -3,-85 -47,-22 c -26,-12 -77,-47 -113,-77 l -67,-55 -6,31 c -10,51 -7,240 5,283 6,22 20,53 32,69 43,60 162,114 302,136 91,14 278,4 363,-20 z m -15,-625 c 465,-81 811,-410 900,-855 24,-118 29,-237 17,-349 -16,-142 -19,-148 -72,-149 -24,-1 -55,-5 -68,-10 -21,-8 -30,-3 -71,42 -60,65 -141,108 -365,194 -277,107 -389,165 -495,260 -87,77 -97,100 -110,255 -7,75 -16,137 -20,137 -4,0 -11,-15 -14,-32 -15,-68 -88,-285 -112,-332 -35,-68 -114,-149 -197,-201 -39,-24 -138,-71 -221,-105 -200,-82 -293,-132 -344,-183 l -43,-43 -46,11 c -55,14 -58,20 -73,165 -27,250 38,518 177,727 163,245 425,412 733,467 103,19 319,19 424,1 z M 1940,4089 c -76,-181 -112,-419 -93,-609 l 11,-105 -29,-33 c -61,-70 -74,-108 -74,-222 0,-94 3,-111 27,-160 53,-108 154,-195 273,-235 60,-21 82,-51 50,-70 -68,-41 -196,-144 -283,-229 -116,-112 -203,-223 -284,-359 l -53,-90 -29,64 c -44,98 -93,255 -118,381 -20,99 -23,142 -23,343 0,200 3,245 23,344 57,281 180,549 360,786 48,63 261,279 268,272 2,-2 -10,-37 -26,-78 z m 2578,-144 c 171,-203 298,-440 366,-682 53,-188 61,-253 61,-498 0,-201 -3,-244 -23,-343 -25,-126 -74,-283 -119,-382 l -29,-64 -33,59 c -114,203 -338,452 -513,570 -113,75 -114,86 -13,124 130,48 243,158 279,274 28,88 20,197 -19,273 -28,53 -30,64 -22,104 14,67 13,356 -2,430 -10,54 -53,208 -78,277 -9,27 58,-39 145,-142 z M 3234,3695 c 34,-24 99,-64 144,-88 72,-38 81,-46 67,-57 -15,-13 -45,-62 -45,-75 0,-3 20,-5 44,-5 55,0 165,-33 200,-61 34,-27 34,-9 0,49 -23,39 -24,44 -8,38 11,-4 55,-21 99,-38 134,-49 223,-97 273,-145 l 47,-45 -102,-48 -103,-49 -57,58 c -79,79 -146,104 -263,99 -65,-2 -97,-9 -135,-27 -65,-32 -148,-117 -170,-174 l -17,-44 h -78 -78 l -17,44 c -22,57 -105,142 -170,174 -38,18 -70,25 -135,27 -117,5 -184,-20 -262,-99 l -58,-58 -100,47 -100,46 24,25 c 40,42 128,90 266,147 72,29 130,51 130,49 0,-3 -9,-19 -20,-37 -29,-47 -26,-64 6,-39 35,28 145,61 200,61 24,0 44,2 44,5 0,16 -32,65 -50,78 -20,14 -20,15 7,32 92,60 163,140 210,237 l 24,50 61,-66 c 33,-37 88,-87 122,-111 z m -399,-439 c 73,-34 110,-69 144,-138 55,-109 39,-242 -40,-332 -117,-133 -326,-135 -444,-4 -55,61 -78,120 -78,203 0,123 61,217 177,271 71,33 171,33 241,0 z m 840,-1 c 61,-30 130,-106 151,-167 51,-151 -12,-306 -154,-375 -117,-57 -263,-27 -351,73 -97,110 -96,284 3,401 15,17 55,46 89,63 57,29 69,31 142,28 53,-2 94,-10 120,-23 z m -1554,-6 c 12,-6 19,-21 19,-38 0,-15 3,-56 6,-90 l 7,-62 -42,7 c -22,4 -41,4 -41,1 0,-3 20,-17 45,-31 61,-36 60,-54 -4,-48 -44,4 -53,1 -77,-23 l -28,-28 -29,34 c -41,48 -57,90 -57,151 0,64 27,113 73,134 33,15 94,12 128,-7 z m 2148,3 c 75,-40 94,-147 42,-238 -16,-28 -41,-58 -55,-67 -24,-16 -26,-16 -55,13 -22,22 -39,30 -65,30 -48,0 -45,14 9,46 25,14 45,28 45,31 0,3 -18,3 -41,-1 l -40,-6 6,82 c 8,106 8,105 47,117 50,14 70,13 107,-7 z m -1954,-141 50,-43 1,-82 c 0,-66 5,-92 28,-141 81,-178 284,-260 454,-185 24,11 45,20 46,20 1,0 2,-42 2,-92 1,-73 7,-111 28,-176 15,-46 29,-82 31,-80 3,2 -1,35 -7,73 -19,124 7,320 49,367 14,16 16,16 36,-2 50,-47 127,-49 187,-5 l 34,25 18,-28 c 33,-50 51,-164 45,-286 -3,-61 -8,-120 -12,-131 -6,-16 -5,-17 4,-5 32,44 55,147 56,243 0,83 2,96 15,91 104,-46 173,-54 260,-28 88,26 157,78 207,157 34,54 57,151 49,212 -6,50 -5,51 37,86 23,20 57,49 76,65 l 34,29 -7,-83 c -31,-373 -141,-605 -330,-696 -39,-19 -90,-38 -113,-41 l -43,-7 15,36 c 8,19 15,38 15,42 0,3 -29,-21 -65,-55 -89,-83 -186,-147 -263,-172 -52,-17 -80,-20 -146,-17 -123,8 -225,61 -358,187 -38,35 -68,60 -68,57 0,-4 7,-23 15,-42 l 15,-36 -43,7 c -23,3 -74,22 -113,41 -189,91 -300,325 -330,696 l -7,83 24,-21 c 13,-11 47,-40 74,-63 z m 881,-142 c 2,-30 8,-67 13,-82 13,-35 5,-54 -30,-72 -42,-22 -82,-19 -108,9 -23,24 -23,26 -10,116 l 13,91 60,-3 59,-3 z m -864,-464 c 34,-43 35,-48 30,-110 -3,-43 -1,-65 6,-65 13,0 19,-33 27,-147 5,-79 4,-83 -15,-83 -18,0 -20,-6 -20,-60 0,-56 1,-60 23,-60 23,0 24,-4 30,-97 5,-69 11,-101 23,-115 19,-20 17,-21 -38,-18 l -38,2 v -61 -61 h 65 65 v 45 45 l 68,-34 c 83,-42 202,-80 307,-97 117,-20 436,-17 551,4 104,19 249,67 312,104 l 42,25 v -46 -46 h 65 65 v 60 60 h -47 c -44,0 -45,1 -29,18 12,14 18,46 23,115 6,92 7,97 28,97 20,0 22,5 24,56 1,48 -2,57 -19,61 -19,5 -20,11 -15,87 8,110 14,146 25,146 6,0 9,3 9,8 -1,4 -1,36 0,72 2,58 5,69 35,104 l 34,39 76,-47 76,-47 v -64 c 0,-58 2,-64 22,-67 20,-3 24,-13 40,-103 23,-134 24,-125 -22,-125 h -40 v -59 -60 l 52,-3 51,-3 29,-165 c 15,-91 38,-223 49,-294 l 22,-130 -33,-29 c -36,-32 -43,-30 -42,13 l 1,30 h -65 -64 v -66 -65 l 30,5 c 17,2 30,3 30,1 0,-10 -180,-116 -268,-157 -103,-49 -321,-128 -354,-128 -13,0 -18,8 -18,30 v 30 h -60 -60 v -44 -43 l -47,-6 c -27,-4 -80,-9 -119,-13 l -71,-6 5,56 4,56 h -62 -62 l 4,-56 3,-56 -70,6 c -38,4 -91,9 -117,13 l -48,6 v 43 44 h -60 -60 v -30 c 0,-20 -5,-30 -15,-30 -30,0 -254,79 -350,124 -103,48 -265,145 -265,158 0,4 10,7 23,5 20,-2 22,2 25,61 l 3,62 h -65 -65 l -3,-37 -3,-37 -34,30 -34,31 32,194 c 29,176 54,317 67,377 4,19 11,22 54,22 h 50 v 60 60 h -40 c -46,0 -45,-9 -22,125 16,91 20,100 40,103 22,3 23,8 21,65 l -3,62 75,47 c 41,27 77,48 80,48 4,0 22,-20 41,-45 z m 474,-261 c 84,-60 180,-103 258,-116 122,-20 254,19 390,116 42,30 76,45 109,50 l 48,7 -17,-33 c -35,-69 -119,-181 -172,-229 -245,-224 -549,-141 -742,204 l -33,59 49,-8 c 34,-5 68,-20 110,-50 z m 855,-179 c -14,-127 -54,-215 -119,-260 -72,-49 -175,-47 -319,7 l -56,21 75,22 c 96,27 173,73 251,150 56,56 156,193 158,219 0,6 5,-5 11,-24 7,-24 7,-66 -1,-135 z m -1003,75 c 60,-93 163,-197 234,-235 29,-16 86,-39 127,-51 l 74,-21 -56,-21 c -93,-35 -143,-45 -212,-40 -130,8 -205,103 -225,287 -9,78 -6,170 5,159 2,-2 26,-37 53,-78 z"
       id="path2"
       style="stroke:none" />
    <path
       d="m 2630,3065 c -14,-7 -34,-28 -44,-46 -19,-32 -19,-32 0,-24 46,19 59,16 76,-15 22,-39 67,-42 96,-6 14,19 22,22 31,13 8,-8 11,-7 11,7 0,10 -15,33 -34,52 -27,27 -42,34 -72,34 -22,-1 -50,-7 -64,-15 z"
       id="path4"
       style="stroke:none" />
    <path
       d="m 3494,3046 c -19,-19 -34,-42 -34,-52 0,-14 3,-15 11,-7 9,9 17,6 31,-13 11,-13 30,-24 44,-24 24,0 57,26 66,51 4,12 11,12 38,2 19,-7 35,-11 37,-10 6,7 -44,67 -65,76 -46,22 -92,13 -128,-23 z"
       id="path6"
       style="stroke:none" />
    <path
       d="m 3205,2624 c -47,-28 -117,-32 -170,-10 -44,19 -44,7 -2,-37 61,-65 150,-56 203,22 39,58 33,63 -31,25 z"
       id="path8"
       style="stroke:none" />
    <path
       d="m 2010,1690 v -60 h 65 65 v 60 60 h -65 -65 z"
       id="path10"
       style="stroke:none" />
    <path
       d="m 4120,1690 v -60 h 65 65 v 60 60 h -65 -65 z"
       id="path12"
       style="stroke:none" />
    <path
       d="m 2360,1340 c 0,-41 4,-60 13,-61 6,0 36,-2 64,-2 l 53,-2 v 63 62 h -65 -65 z"
       id="path14"
       style="stroke:none" />
    <path
       d="m 2720,1340 c 0,-59 0,-60 29,-60 16,0 43,-3 60,-6 l 31,-6 v 66 66 h -60 -60 z"
       id="path16"
       style="stroke:none" />
    <path
       d="m 3070,1341 c 0,-67 3,-69 73,-63 l 47,4 v 59 59 h -60 -60 z"
       id="path18"
       style="stroke:none" />
    <path
       d="m 3420,1338 v -63 h 60 60 v 63 62 h -60 -60 z"
       id="path20"
       style="stroke:none" />
    <path
       d="m 3770,1337 v -63 l 58,2 c 31,1 60,2 65,3 4,1 7,28 7,61 v 60 h -65 -65 z"
       id="path22"
       style="stroke:none" />
  </g>
  <path
     style="fill:#3e354b;fill-opacity:1;stroke-width:0.708946;stroke:none"
     d="m 32.709231,344.60471 c -5.216835,-12.38661 -9.891802,-28.40035 -12.132997,-41.56063 -1.627245,-9.55515 -1.619535,-48.83142 0.01148,-58.31259 4.93854,-28.70859 17.220614,-57.03849 35.153347,-81.08493 5.520577,-7.40268 26.110776,-28.73783 26.600181,-27.56258 0.182153,0.4374 -0.619207,3.18774 -1.780792,6.11187 -7.406062,18.64367 -10.810552,43.30281 -8.669707,62.79569 l 0.803445,7.31553 -3.891923,4.97404 c -5.19096,6.63427 -6.04587,9.73974 -6.006787,21.81972 0.03405,10.53065 0.495352,12.55291 4.32018,18.93949 5.02938,8.3979 13.498439,15.30006 24.344234,19.8402 6.97791,2.92102 8.702778,4.82484 5.984887,6.6058 -4.792492,3.14039 -13.853077,10.17781 -20.147017,15.64834 -14.756287,12.82578 -26.327256,26.52415 -36.156284,42.80386 -2.729445,4.52076 -5.122139,8.21986 -5.317094,8.22023 -0.194963,3.8e-4 -1.596765,-2.94894 -3.115118,-6.55404 z"
     id="path34" />
  <path
     style="fill:#3e354b;fill-opacity:1;stroke-width:0.708946;stroke:none"
     d="M 187.18448,473.71193 C 155.70786,472.3137 122.39652,461.50191 93.526145,443.31343 67.519513,426.92913 44.744511,403.90349 29.079306,378.15734 15.724297,356.20807 6.0787043,330.11914 2.1020919,305.19069 0.59378948,295.73549 -0.0306905,265.58486 1.0220695,253.04604 3.9919119,217.67406 18.896301,180.95487 42.920863,149.8221 c 6.197625,-8.03133 23.46672,-25.45534 31.895557,-32.18167 15.078847,-12.03315 34.63419,-23.320346 53.52547,-30.894513 5.06898,-2.03232 9.61668,-4.07757 10.10601,-4.544992 0.71331,-0.68136 0.68818,-2.249745 -0.12674,-7.91049 -3.02632,-21.021847 -1.67982,-38.833499 3.68506,-48.746241 2.24996,-4.15728 10.80263,-12.416745 15.90171,-15.356557 4.60897,-2.6572579 16.46321,-6.5764053 25.02287,-8.2728452 4.70385,-0.93226501 9.6407,-1.256895 18.78709,-1.2354 14.54883,0.0342 23.02848,1.263825 34.02773,4.9343249 18.26278,6.0943653 28.23869,16.2593093 31.62055,32.2197363 1.46842,6.930113 1.04549,28.378215 -0.75914,38.497304 -0.68406,3.835763 -0.96853,7.201538 -0.63213,7.479503 0.33638,0.277957 2.52577,1.24542 4.86529,2.149912 10.02092,3.8742 30.31602,14.433708 39.34655,20.471928 13.54169,9.05459 20.11237,14.4879 32.26933,26.68359 23.06783,23.14132 38.6306,48.75539 48.78595,80.29456 22.43702,69.68208 4.59095,146.06312 -46.5423,199.20073 -28.84735,29.97814 -65.1238,49.87671 -105.72804,57.99459 -15.44115,3.0871 -31.08987,4.02576 -51.7872,3.10636 z m 7.67114,-22.58746 -0.43736,-5.67157 h 5.87859 5.87857 l -0.47299,5.67157 -0.47299,5.67157 1.96619,-0.007 c 1.08141,-0.004 6.11354,-0.47621 11.1825,-1.04959 5.06897,-0.57338 9.61509,-1.04873 10.10249,-1.05633 0.61664,-0.01 0.88619,-1.41547 0.88619,-4.62199 v -4.60815 h 5.67157 5.67158 v 1.99134 c 0,1.09523 0.44784,2.6038 0.9952,3.35235 0.97763,1.33699 1.09343,1.33222 6.55776,-0.26996 15.95899,-4.67931 37.95822,-14.65373 51.99857,-23.57612 l 6.02604,-3.82944 -3.3675,-0.21607 -3.3675,-0.21608 v -5.98721 -5.9872 h 5.98529 5.98528 l 0.21801,3.0069 c 0.2877,3.96833 1.65972,4.15778 5.38342,0.74336 l 2.93022,-2.68684 -4.90672,-28.71235 c -2.6987,-15.79179 -4.91901,-29.07364 -4.93401,-29.51523 -0.0162,-0.47792 -2.17938,-1.00456 -5.34438,-1.30114 l -5.31711,-0.49826 v -5.61108 -5.61109 h 3.56699 c 4.43797,0 4.67821,-0.51739 3.55714,-7.66048 -1.75283,-11.16834 -2.85105,-14.92476 -4.51511,-15.44379 -2.30887,-0.72015 -2.58559,-1.54155 -2.60584,-7.73492 l -0.0186,-5.67157 -7.76754,-4.74795 -7.76754,-4.74794 -2.58736,2.97558 c -3.74198,4.30349 -4.54845,6.70207 -4.54845,13.52794 0,3.56362 -0.30235,6.09052 -0.74645,6.23855 -1.17516,0.39172 -2.01423,5.18291 -2.52551,14.42084 l -0.47185,8.52545 1.87191,0.85289 c 1.71069,0.77945 1.87096,1.20527 1.86105,4.94454 -0.0122,4.57633 -0.42398,5.58078 -2.44533,5.9641 -1.69068,0.32062 -2.15592,2.09445 -3.09684,11.80734 -0.43401,4.48019 -1.15244,7.97893 -1.86019,9.05909 -1.62181,2.47519 -0.87104,3.13768 3.55584,3.13768 h 3.85737 v 5.67156 5.67158 h -6.02605 -6.02605 v -4.60815 c 0,-2.53449 -0.22785,-4.60816 -0.50632,-4.60816 -0.27848,0 -2.91043,1.24109 -5.84881,2.75798 -10.71367,5.53077 -24.57102,9.46509 -37.93316,10.76983 -13.09207,1.27838 -42.85958,0.46765 -51.25676,-1.396 -8.85481,-1.96521 -18.27604,-5.18209 -26.31147,-8.98407 -3.65898,-1.73126 -6.76948,-3.14774 -6.91223,-3.14774 -0.14276,0 -0.25955,2.07367 -0.25955,4.60816 v 4.60815 h -6.02605 -6.02605 v -5.89405 -5.89405 l 4.25368,0.30768 c 4.62495,0.33454 5.06447,-0.0931 3.13006,-3.04536 -0.67412,-1.02884 -1.40649,-4.63492 -1.83072,-9.01413 -0.98304,-10.14774 -1.35021,-11.41735 -3.44481,-11.91183 -1.67183,-0.39466 -1.75374,-0.66083 -1.75374,-5.69913 0,-5.03788 0.0795,-5.29637 1.69981,-5.5254 l 1.69981,-0.24026 -0.47699,-8.62158 c -0.51601,-9.32698 -1.35228,-14.12417 -2.53065,-14.51696 -0.45349,-0.15116 -0.74852,-2.93842 -0.75172,-7.10197 l -0.005,-6.85315 -3.28689,-4.13249 c -2.36209,-2.96976 -3.64967,-4.03761 -4.57631,-3.79528 -0.70918,0.18545 -4.4708,2.35973 -8.35914,4.83172 l -7.06971,4.49454 0.41346,5.85868 0.41346,5.85868 -2.196468,0.76569 c -2.012198,0.70146 -2.287073,1.19207 -3.27672,5.84864 -1.601873,7.53582 -2.536162,13.2439 -2.536162,15.49289 0,1.94754 0.09589,1.99664 3.899204,1.99664 h 3.899206 v 5.67157 5.67157 h -4.118176 c -2.265,0 -4.618274,0.39879 -5.229494,0.88618 -1.30671,1.04201 -0.866813,-1.09892 -6.664448,32.43432 l -4.596435,26.5855 3.372638,3.01303 c 1.854945,1.65716 3.62064,3.01302 3.923752,3.01302 0.30312,0 0.551123,-1.0905 0.551123,-2.42333 0,-4.48842 0.259395,-4.66614 6.810847,-4.66614 h 5.950193 l -0.007,1.94961 c -0.004,1.07228 -0.20735,3.62449 -0.45323,5.67157 -0.39427,3.28247 -0.639746,3.72197 -2.078838,3.72197 -2.41671,0 -2.868998,1.42503 -0.93123,2.93402 10.071778,7.84316 37.483208,20.54911 54.823338,25.41214 5.38832,1.51115 5.66627,1.52407 6.55776,0.30491 0.51223,-0.70023 0.93116,-2.16925 0.93116,-3.26448 v -1.99134 h 5.67157 5.67158 v 4.60815 c 0,4.29228 0.10933,4.61137 1.59513,4.65513 0.87732,0.0258 4.9449,0.46859 9.03906,0.98388 4.09417,0.51531 8.78982,0.9727 10.43478,1.01645 l 2.99083,0.0795 z m -14.76061,-78.33641 c 5.07181,-1.05942 15.11069,-4.37588 16.20431,-5.35329 0.33412,-0.29861 -2.21809,-1.4043 -5.67157,-2.45707 -8.90226,-2.71382 -15.46376,-6.0254 -20.98068,-10.58898 -5.32919,-4.40828 -13.45943,-13.86799 -18.18721,-21.1612 -1.71218,-2.64126 -3.46683,-4.68098 -3.8992,-4.5327 -0.52069,0.17859 -0.76764,3.11978 -0.73135,8.71034 0.1778,27.38496 11.89415,39.84701 33.2657,35.3829 z m 57.95886,-0.59244 c 3.6871,-1.54057 8.87728,-6.58643 10.91881,-10.6152 0.96542,-1.90516 2.38759,-5.90579 3.16037,-8.89029 2.25581,-8.71199 2.70482,-24.9224 0.69032,-24.9224 -0.32085,0 -1.75173,1.99392 -3.1797,4.43092 -3.85583,6.5804 -12.26913,16.63787 -17.83146,21.31615 -5.65496,4.75618 -14.0001,9.11548 -21.7093,11.34039 -2.95414,0.85257 -5.43522,1.85874 -5.51351,2.2359 -0.17499,0.84304 11.87136,5.07933 17.07674,6.00531 5.00957,0.89113 13.17301,0.44242 16.38773,-0.90078 z m -23.57494,-15.62181 c 9.02708,-3.73431 15.72607,-9.14075 23.23458,-18.75152 4.24768,-5.43696 10.79486,-15.9584 10.79486,-17.34753 0,-0.88587 -6.31471,0.17946 -9.69121,1.63497 -1.62592,0.70089 -4.93658,2.61918 -7.35703,4.26287 -2.42043,1.64368 -7.37716,4.39845 -11.01494,6.12168 -17.4777,8.27926 -31.33111,6.6469 -51.0749,-6.01822 -6.84865,-4.39323 -9.398,-5.4866 -14.34056,-6.15043 l -3.79688,-0.50997 1.9698,3.44433 c 9.82587,17.18119 19.6694,27.4657 31.14584,32.54113 6.17377,2.73033 8.50857,3.11877 17.3694,2.88974 6.93592,-0.17929 8.84073,-0.49529 12.76104,-2.11705 z M 41.463538,344.03051 c 12.49002,-20.88804 29.233455,-38.86067 51.574724,-55.36097 3.625207,-2.67744 6.591292,-5.33157 6.591292,-5.89808 0,-1.74752 -2.844285,-3.80034 -7.989884,-5.76658 -11.057963,-4.22549 -20.325615,-12.4685 -25.424032,-22.61313 l -2.850383,-5.67158 0.241223,-10.98867 c 0.272872,-12.43059 0.58656,-13.41681 6.625297,-20.82999 l 3.314093,-4.06841 -0.782618,-6.63595 c -2.367525,-20.07459 0.608663,-42.56498 8.344785,-63.05981 3.056032,-8.09615 3.404205,-9.62101 2.19678,-9.62101 -1.379228,0 -22.823535,22.3448 -27.922544,29.09508 -18.02388,23.86074 -30.406657,52.41334 -35.499157,81.85509 -1.568295,9.06696 -1.576807,49.69552 -0.0123,58.84257 1.485457,8.68502 4.216155,19.5188 7.207567,28.59529 2.8899,8.76847 8.18475,21.37785 8.813648,20.98917 0.237187,-0.14659 2.744377,-4.13495 5.571524,-8.86302 z m 325.791532,4.0926 c 5.20717,-11.27026 11.07535,-30.78647 13.47238,-44.80613 1.33039,-7.78104 1.54111,-46.24813 0.30955,-56.50597 -0.89793,-7.47889 -4.5823,-22.52218 -7.85557,-32.07427 -6.53069,-19.05791 -17.52978,-38.85766 -30.8148,-55.47052 -6.6986,-8.37655 -17.00258,-19.16314 -17.67542,-18.50327 -0.28692,0.28138 0.78131,4.90726 2.37384,10.27972 1.59255,5.37246 3.43383,11.84177 4.09176,14.37626 1.5689,6.04368 2.21976,22.96614 1.5265,39.68919 l -0.54419,13.12734 2.11086,4.60815 c 2.9281,6.39222 3.83024,11.27423 3.40033,18.40121 -0.9432,15.63643 -11.34644,28.4451 -29.15952,35.90181 -3.30923,1.38526 -6.38144,2.95806 -6.82713,3.49509 -1.56714,1.88829 0.18235,3.91597 8.38611,9.71967 9.29612,6.57649 27.12125,23.74415 35.15841,33.86161 5.41779,6.8201 14.80607,20.6475 17.44888,25.69932 0.96892,1.85212 1.86274,3.3675 1.98625,3.3675 0.12352,0 1.29882,-2.32502 2.61176,-5.16671 z M 208.94969,329.82583 c 7.95078,-1.64587 18.02961,-7.67003 29.45619,-17.60611 3.21684,-2.79723 5.84881,-4.94858 5.84881,-4.78077 0,0.16782 -0.49723,1.49516 -1.10495,2.94964 -0.60772,1.45448 -0.92411,2.82537 -0.70307,3.0464 0.9204,0.9204 9.43016,-1.40046 14.97405,-4.08386 15.45321,-7.47978 25.62317,-23.43219 30.74396,-48.22439 1.60381,-7.76485 3.79399,-26.00076 3.46092,-28.81632 -0.22142,-1.87172 -0.34679,-1.80714 -6.252,3.22073 -9.38776,7.99303 -9.39022,7.99668 -8.85311,13.10529 0.56225,5.34763 -0.99528,13.33994 -3.67426,18.85407 -2.36019,4.85796 -10.01284,12.67073 -14.77142,15.08049 -9.21938,4.66871 -17.60915,5.28558 -27.29011,2.00656 -3.31433,-1.12259 -6.21603,-1.925 -6.44822,-1.78313 -0.2322,0.14187 -0.61188,4.03065 -0.84372,8.64171 -0.42215,8.39627 -1.9515,16.92759 -3.76974,21.0291 -0.85395,1.92633 -0.91722,0.9618 -0.53079,-8.09274 0.64365,-15.08197 -1.35415,-27.05477 -5.33465,-31.97047 l -1.25016,-1.54389 -3.07272,2.22586 c -6.02455,4.36418 -12.14617,4.59501 -17.66088,0.66599 -3.59086,-2.55836 -4.67422,-2.28081 -6.66141,1.70658 -2.56699,5.15077 -3.62409,12.39321 -3.66267,25.0937 -0.0292,9.5941 -0.20198,11.73626 -0.82698,10.24952 -1.74243,-4.14483 -3.04795,-11.47611 -3.51169,-19.72005 -0.26868,-4.77653 -0.71154,-8.6846 -0.98413,-8.6846 -0.2726,0 -2.54455,0.83291 -5.04878,1.85089 -5.43307,2.20858 -13.51121,2.95577 -19.06913,1.76381 -10.27819,-2.20427 -19.66696,-9.69672 -24.56392,-19.60254 -2.6702,-5.40143 -2.75503,-5.80557 -2.99819,-14.2851 l -0.25023,-8.7264 -7.54818,-6.49645 c -8.94009,-7.69441 -8.57142,-8.07717 -6.89445,7.15795 3.89898,35.42168 14.49303,56.17854 33.3252,65.29383 5.5439,2.6834 14.05365,5.00426 14.97405,4.08386 0.22104,-0.22103 -0.0995,-1.60194 -0.71238,-3.06867 -0.61283,-1.46674 -1.02982,-2.75122 -0.92662,-2.85442 0.10319,-0.10319 2.89886,2.21512 6.21259,5.15183 7.18417,6.36677 13.15555,10.69835 18.33372,13.29912 8.15084,4.09379 19.30835,5.63924 27.88907,3.86298 z m -44.72551,-48.14338 c 15.92667,-2.97239 26.7225,-18.27238 24.09965,-34.15435 -1.71091,-10.36 -7.73767,-18.44952 -16.96332,-22.76935 -9.21153,-4.31322 -21.31817,-3.29046 -29.84431,2.52123 -9.33164,6.36075 -13.39198,15.11847 -12.63497,27.25233 0.29698,4.76024 0.81875,6.8794 2.56931,10.4353 6.05637,12.30224 19.54807,19.18312 32.77364,16.71484 z m 83.71759,-0.0836 c 13.84299,-2.93412 23.96184,-15.28533 23.96184,-29.24816 0,-9.06373 -3.1984,-16.41129 -9.8537,-22.63655 -5.95538,-5.57056 -11.90605,-7.57947 -22.45148,-7.57947 -4.527,0 -5.736,0.31626 -10.68124,2.79409 -9.68948,4.85494 -14.94719,11.9541 -16.64024,22.46829 -3.34841,20.79438 15.16375,38.54714 35.66482,34.2018 z m -41.89781,-12.88619 c 2.16984,-1.46858 2.39943,-1.94353 2.31335,-4.7854 -0.16982,-5.60581 -1.14768,-14.70543 -1.67133,-15.55272 -0.31055,-0.50247 -2.82539,-0.87261 -6.44271,-0.94822 l -5.93331,-0.12404 -0.85094,5.67158 c -0.46801,3.11936 -0.8749,7.47761 -0.90418,9.68499 -0.0484,3.6419 0.14865,4.18332 2.12797,5.84881 2.91828,2.45558 7.90301,2.54552 11.36115,0.205 z M 91.09427,254.42056 c 2.208772,-2.27887 2.729032,-2.46708 7.349062,-2.65854 7.208698,-0.29875 7.076958,-0.94027 -1.394033,-6.78816 -1.12215,-0.77467 -0.754935,-0.84922 2.460983,-0.4996 3.401238,0.36976 3.743118,0.28342 3.412488,-0.86184 -0.20209,-0.70002 -0.56599,-4.144 -0.80868,-7.65329 -0.67448,-9.75311 -0.76257,-10.0041 -3.959996,-11.28346 -3.446842,-1.37915 -8.429864,-1.44668 -11.518694,-0.15608 -2.862068,1.19584 -5.749583,4.54126 -6.882435,7.97384 -1.379355,4.1795 -0.549188,12.2241 1.671502,16.19736 2.231333,3.99229 5.505773,8.05985 6.545625,8.13108 0.410918,0.0281 1.816793,-1.05243 3.124178,-2.40131 z m 223.82362,-0.11054 c 1.32949,-1.40967 3.27684,-4.20115 4.32745,-6.20329 1.63906,-3.12355 1.91159,-4.50291 1.92012,-9.71806 0.009,-5.45308 -0.19053,-6.38076 -1.94044,-9.02506 -3.35405,-5.06831 -9.43772,-6.97213 -16.2411,-5.08246 -3.32103,0.92242 -3.91475,2.58184 -4.55737,12.73745 l -0.49375,7.80291 3.29118,-0.4511 c 1.81015,-0.24812 3.29118,-0.29593 3.29118,-0.10625 0,0.18968 -1.59513,1.33646 -3.54473,2.5484 -4.904,3.04849 -4.59151,5.09787 0.77734,5.09787 1.39225,0 2.95424,0.81352 4.72741,2.46213 3.42567,3.18506 5.39358,3.17048 8.44271,-0.0625 z M 210.20324,238.02088 c 2.89907,-6.39376 10.81384,-14.33025 17.33367,-17.38125 4.01093,-1.87695 5.78856,-2.25928 11.95529,-2.57139 12.33189,-0.62412 18.46095,1.71887 27.44498,10.49155 2.77008,2.70491 5.2357,4.91803 5.47916,4.91803 1.38553,0 20.72204,-9.67467 20.52815,-10.27088 -0.59904,-1.84206 -10.54476,-9.17101 -16.68853,-12.29769 -7.80415,-3.97168 -26.13329,-11.18465 -26.77953,-10.53841 -0.23698,0.23699 0.56484,2.19522 1.78184,4.35163 1.217,2.1564 2.21273,4.22214 2.21273,4.59051 0,0.36838 -1.44331,-0.1369 -3.20736,-1.12284 -4.48366,-2.50597 -11.12891,-4.42262 -17.17486,-4.95364 -2.82693,-0.2483 -5.13986,-0.69161 -5.13986,-0.98513 0,-0.29352 1.11607,-2.19216 2.48017,-4.2192 1.36409,-2.02703 2.31156,-3.95835 2.10546,-4.2918 -0.20609,-0.33347 -3.31608,-2.25866 -6.91109,-4.27821 -12.05815,-6.77383 -16.4153,-9.98772 -24.969,-18.4174 l -8.50735,-8.38402 -3.53163,6.80012 c -4.03273,7.765 -10.67752,15.40576 -17.84643,20.52138 -4.63897,3.31031 -5.28244,4.24718 -3.41045,4.96554 1.14765,0.44038 5.29247,6.06568 5.29247,7.18285 0,0.35993 -2.31294,0.85757 -5.13986,1.10587 -6.08517,0.53446 -12.69632,2.45053 -17.26416,5.00353 -1.81316,1.0134 -3.44643,1.84254 -3.62951,1.84254 -0.18307,0 0.67561,-1.78688 1.90817,-3.97086 1.23255,-2.18397 2.05863,-4.15324 1.83572,-4.37616 -0.65003,-0.65002 -16.98218,6.06071 -26.62769,10.94107 -8.18711,4.14245 -15.59682,9.34456 -15.59682,10.94998 0,0.616 15.73553,8.41572 19.19063,9.51232 1.1875,0.3769 2.57525,-0.58056 6.9214,-4.77534 2.98986,-2.88573 6.57878,-5.93915 7.97538,-6.78537 4.52735,-2.7432 10.84204,-3.91695 18.88346,-3.50997 6.16672,0.31211 7.94435,0.69444 11.95529,2.57139 6.51982,3.051 14.4346,10.98749 17.33366,17.38125 l 2.11895,4.67325 h 7.7843 7.7843 z M 106.65492,216.23683 c 4.9116,-4.67326 11.35565,-8.46679 23.17892,-13.64508 5.02824,-2.20226 13.44359,-5.89735 18.70079,-8.21134 5.25719,-2.31398 11.95673,-5.69351 14.88788,-7.51006 6.80749,-4.21888 15.98376,-13.43008 18.90848,-18.98046 2.29397,-4.3534 8.95723,-23.16676 11.23633,-31.72519 0.70238,-2.63757 1.41143,-4.66119 1.57567,-4.49695 0.16424,0.16424 0.91705,5.78129 1.6729,12.48234 1.72962,15.33392 2.55868,17.39436 9.7669,24.27319 10.14473,9.68114 20.39603,15.27645 49.01505,26.75311 24.19222,9.70145 30.62814,13.06135 37.71599,19.68984 4.95992,4.63845 5.86133,5.20891 7.53161,4.76627 1.04355,-0.27654 3.89703,-0.72116 6.34108,-0.98805 2.50896,-0.27396 4.92723,-0.96874 5.55424,-1.59576 3.27037,-3.27037 4.34913,-30.77145 1.77988,-45.37522 -6.11976,-34.78509 -26.98249,-62.98273 -57.85938,-78.201523 -16.02056,-7.896322 -29.2778,-11.298922 -47.20715,-12.116182 -28.41474,-1.295198 -51.53309,4.862475 -73.70605,19.631945 -8.04939,5.36173 -21.4008,18.46677 -26.63967,26.1481 -14.568981,21.36133 -21.525253,47.45927 -19.41626,72.84427 0.90837,10.93358 1.877482,16.09236 3.234667,17.21872 1.396522,1.15901 5.98209,2.74013 8.056553,2.77792 1.12027,0.0204 3.07244,-1.26687 5.67157,-3.73989 z M 159.89505,67.157725 c 4.67248,-3.914362 13.12173,-9.599805 16.09947,-10.833225 1.82537,-0.75609 2.21564,-1.377765 2.59292,-4.130392 0.24429,-1.782188 0.46663,-5.030212 0.4941,-7.217835 l 0.05,-3.977497 1.01158,2.835787 c 3.36278,9.426945 3.1162,9.046455 5.53219,8.536582 1.21999,-0.25746 4.92988,-0.942262 8.24421,-1.521772 8.60317,-1.50426 8.2903,-1.312515 10.06563,-6.168982 l 1.60498,-4.39056 0.54641,3.770812 c 0.81138,5.599605 1.34963,6.24174 5.65617,6.747885 4.64136,0.545505 14.34845,3.784275 20.18802,6.735742 2.41245,1.219305 7.35735,4.609793 10.98868,7.534403 3.63132,2.924617 6.81627,5.322862 7.07769,5.329439 1.90647,0.04792 1.51602,-27.285651 -0.46858,-32.802006 -3.86918,-10.754692 -17.33696,-17.6688 -38.28983,-19.657282 -16.43651,-1.559873 -31.14363,0.509212 -42.39754,5.964735 -6.86323,3.32706 -9.94433,6.05136 -12.32354,10.896404 -1.92209,3.91419 -2.00366,4.522305 -2.24199,16.715152 -0.24028,12.292553 0.17273,18.894952 1.18198,18.894952 0.27132,0 2.24568,-1.468057 4.38747,-3.262342 z"
     id="path859" />
  <path
     style="fill:#3e354b;fill-opacity:1;stroke-width:0.708946;stroke:none"
     d="m 31.683554,340.70601 c -3.740033,-9.54036 -6.871935,-19.73487 -9.310898,-30.30747 -3.683947,-15.96945 -3.529687,-57.99977 0.271898,-74.08493 6.99495,-29.59678 21.256897,-58.68618 38.359566,-78.24013 6.692595,-7.65182 20.099235,-21.34231 20.503717,-20.93783 0.161438,0.16144 -0.82104,3.48071 -2.183295,7.37617 -6.807067,19.46531 -9.517499,41.55305 -7.640647,62.26484 l 0.48147,5.31318 -3.946935,5.40459 c -5.04795,6.91225 -5.6694,9.63469 -5.34768,23.42733 0.247418,10.60718 0.254348,10.64584 2.729355,15.21491 2.802038,5.17278 8.44488,11.58516 13.356622,15.1781 1.816995,1.32913 6.892673,4.2326 11.27928,6.45216 4.386607,2.21955 7.97565,4.4619 7.97565,4.98301 0,0.5211 -1.189125,1.68237 -2.642505,2.58061 -1.453373,0.89825 -5.78748,4.13866 -9.631327,7.20093 -19.749045,15.73341 -31.928984,29.22425 -44.773582,49.59243 -2.643337,4.19165 -5.060564,7.62118 -5.371619,7.62118 -0.311055,0 -2.160135,-4.06758 -4.10907,-9.03908 z"
     id="path861" />
  <path
     style="fill:#50d0ac;fill-opacity:1;stroke-width:0.708946;stroke:none"
     d="m 33.016521,344.27663 c -4.770082,-11.36375 -9.689572,-27.99986 -11.719132,-39.63025 -1.451843,-8.31983 -2.069903,-34.58734 -1.149098,-48.83674 1.334018,-20.64374 7.010348,-40.4507 17.785612,-62.06109 9.162068,-18.37503 16.117965,-28.35152 30.65673,-43.96938 9.661259,-10.37833 14.129032,-14.35504 12.993847,-11.56567 -2.16255,5.31378 -5.608253,16.63671 -7.069117,23.2298 -2.755718,12.43695 -3.479453,21.18636 -3.055733,36.94165 l 0.381323,14.17894 -2.673668,3.56932 c -5.907217,7.8861 -6.048487,8.41539 -6.048487,22.66171 v 12.76104 l 2.471257,4.60816 c 1.507778,2.81154 4.68639,6.8343 8.15289,10.31806 4.87185,4.89611 6.903555,6.33179 14.255092,10.07319 7.684995,3.9111 10.949827,6.11048 10.137412,6.82913 -0.153045,0.13539 -4.106572,3.12888 -8.785627,6.65219 -21.005624,15.81723 -34.937489,30.98088 -48.833031,53.15064 -2.260643,3.60676 -4.35654,6.55776 -4.657537,6.55776 -0.300998,0 -1.580228,-2.46081 -2.842733,-5.46846 z"
     id="path863" />
  <path
     style="fill:#50d0ac;fill-opacity:1;stroke-width:0.708946;stroke:none"
     d="m 362.2942,347.61801 c -8.26356,-16.30737 -32.67282,-44.08899 -49.20804,-56.00656 -9.63663,-6.9455 -11.74568,-8.80335 -11.12806,-9.80268 0.27777,-0.44945 4.48078,-2.73576 9.34001,-5.08068 7.45288,-3.59655 9.69282,-5.08468 14.31876,-9.51287 3.01609,-2.88714 6.56676,-7.04514 7.89038,-9.24 6.23212,-10.33424 6.74797,-25.35411 1.24961,-36.38417 l -1.67273,-3.35559 0.3395,-21.67002 c 0.38152,-24.35253 0.22746,-25.72593 -4.8753,-43.46173 -1.55612,-5.40865 -2.7029,-9.96031 -2.5484,-10.11481 0.1545,-0.1545 2.64153,2.19709 5.52674,5.22575 25.17249,26.42411 43.20852,62.50346 48.50858,97.03679 1.55156,10.10945 1.55238,47.68152 10e-4,57.40752 -1.22261,7.666 -4.98484,22.56816 -7.6817,30.42713 -2.44862,7.13554 -7.13489,18.07304 -7.74444,18.07512 -0.28588,7e-4 -1.32814,-1.59347 -2.31615,-3.5432 z"
     id="path865" />
  <path
     style="fill:#eaa083;fill-opacity:1;stroke-width:0.708946;stroke:none"
     d="m 191.29133,328.82553 c -8.73577,-1.89849 -16.0305,-6.32196 -28.41845,-17.23276 -3.62336,-3.19131 -6.91488,-5.80238 -7.31448,-5.80238 -0.80871,0 -0.29933,2.09556 1.24938,5.13986 0.92409,1.81646 0.89221,1.94961 -0.46665,1.94961 -2.08456,0 -9.45468,-2.5786 -14.10318,-4.93432 -18.57915,-9.41533 -28.95604,-32.15349 -32.36673,-70.92299 l -0.46776,-5.3171 2.02527,1.81252 c 1.11391,0.99688 4.33822,3.82121 7.16515,6.27629 l 5.13986,4.46378 v 7.38864 c 0,8.51326 1.27904,13.10934 5.35766,19.25219 9.31324,14.02676 25.75675,19.7993 41.14252,14.44321 l 5.73575,-1.99673 0.75359,9.98186 c 0.58924,7.80487 1.23963,11.48938 2.98214,16.89409 2.31989,7.19555 4.15181,9.36456 3.29323,3.89921 -2.34866,-14.95062 0.005,-36.48191 4.42333,-40.48133 1.23658,-1.11909 1.4272,-1.10358 3.1564,0.25661 5.75474,4.52667 13.68481,4.52959 19.43414,0.008 1.00203,-0.78819 2.09248,-1.43307 2.42325,-1.43307 1.33448,0 4.22616,7.40822 5.3131,13.61165 0.87752,5.00824 1.055,8.97944 0.73825,16.51859 -0.22936,5.45889 -0.62684,10.96209 -0.88331,12.22933 -0.71859,3.55061 0.74948,2.77998 2.51283,-1.31904 2.25938,-5.25206 3.48771,-11.86081 4.02411,-21.65072 l 0.47196,-8.61359 4.68114,1.78247 c 6.93051,2.63897 15.3409,2.99546 22.1464,0.93871 13.57886,-4.10379 22.14925,-13.55838 25.14844,-27.74302 0.68613,-3.24502 0.94749,-6.68299 0.68429,-9.00111 -0.23423,-2.06289 -0.12148,-4.31945 0.25055,-5.01458 0.37203,-0.69514 3.5985,-3.76301 7.16995,-6.81751 l 6.49354,-5.55361 -0.48237,5.60557 c -3.26858,37.98368 -13.89859,61.15567 -32.3426,70.50251 -4.6485,2.35572 -12.01861,4.93432 -14.10318,4.93432 -1.35885,0 -1.39073,-0.13315 -0.46665,-1.94961 1.52018,-2.98821 2.05644,-5.13986 1.28103,-5.13986 -0.3822,0 -3.79115,2.71227 -7.57544,6.02727 -18.04426,15.80653 -30.55114,20.41012 -46.20646,17.00787 z m 13.46235,-32.49755 c 3.71729,-1.5562 10.14429,-9.49643 8.78603,-10.85469 -0.25333,-0.25333 -2.61809,0.53126 -5.25503,1.74353 -6.58557,3.02756 -9.8803,3.44168 -15.43004,1.93943 -2.49793,-0.67616 -4.88534,-1.11482 -5.30536,-0.97482 -0.42528,0.14176 0.19332,1.55585 1.39614,3.19142 3.77487,5.13303 10.41304,7.21378 15.80826,4.95513 z"
     id="path869" />
  <path
     style="fill:#eaa083;fill-opacity:1;stroke-width:0.708946;stroke:none"
     d="m 191.56541,238.60287 c -2.26224,-6.29111 -10.45065,-15.00054 -17.46983,-18.58146 -3.43178,-1.75076 -9.77057,-2.85308 -16.28536,-2.83204 -10.44982,0.0337 -15.74015,2.26563 -23.88078,10.07474 l -5.75561,5.52122 -9.11108,-4.2998 c -5.01109,-2.36487 -9.2548,-4.44351 -9.43046,-4.61917 -0.686,-0.68599 3.37414,-4.15277 8.7318,-7.45571 5.21002,-3.21194 24.8743,-12.06097 29.23258,-13.15483 l 1.90847,-0.479 -1.46171,2.41222 c -2.23703,3.69168 -2.66298,5.60248 -1.2489,5.60248 0.64845,0 2.05383,-0.62294 3.12309,-1.38431 3.10526,-2.21115 12.6462,-5.0933 18.26809,-5.51848 4.26433,-0.32251 5.1743,-0.6053 5.1743,-1.60796 0,-1.40593 -3.25171,-6.46135 -4.69452,-7.29854 -1.53124,-0.88851 -1.18303,-1.58965 1.75514,-3.53404 7.55001,-4.99635 15.39687,-14.06889 19.84414,-22.94377 l 2.18406,-4.35846 6.90385,7.02696 c 7.39012,7.52191 12.73114,11.52274 23.98808,17.96896 3.89921,2.23286 7.37225,4.32837 7.71787,4.6567 0.35833,0.3404 -0.3272,2.03964 -1.59513,3.95387 -3.4053,5.14106 -3.14855,5.67499 2.95078,6.13628 5.62189,0.42518 15.16283,3.30733 18.26808,5.51848 1.81107,1.28958 4.20654,1.86453 4.20654,1.00962 0,-0.20608 -0.96168,-2.27975 -2.13705,-4.60815 -1.17537,-2.32841 -1.81158,-4.23347 -1.41378,-4.23347 1.73032,0 22.81092,8.82529 27.54352,11.53095 2.86309,1.63685 7.01042,4.62089 9.21631,6.63121 l 4.0107,3.65512 -9.85048,4.68753 -9.85047,4.68753 -5.74636,-5.51232 c -6.07998,-5.83237 -10.30737,-8.28971 -16.17533,-9.40254 -7.67014,-1.45462 -18.86338,-0.44238 -23.98156,2.16872 -7.01918,3.58092 -15.20758,12.29035 -17.46983,18.58146 l -1.21626,3.38231 h -7.51832 -7.51832 z"
     id="path871" />
  <path
     style="fill:#eaa083;fill-opacity:1;stroke-width:0.708946;stroke:none"
     d="m 195.08642,267.89559 c -2.1874,-2.02721 -2.34523,-4.1465 -1.03929,-13.9552 l 0.83661,-6.28363 3.59431,0.0839 c 1.97687,0.0461 4.55138,0.28781 5.72115,0.53707 2.11224,0.45009 2.131,0.49696 2.73341,6.82835 1.07245,11.27159 1.09762,11.06843 -1.59759,12.89526 -3.33618,2.26129 -7.74362,2.21582 -10.2486,-0.10573 z"
     id="path873" />
  <path
     style="fill:#eaa083;fill-opacity:1;stroke-width:0.708946;stroke:none"
     d="m 189.64574,356.92178 c -7.55425,-2.41785 -12.8068,-5.80647 -19.8995,-12.83795 -6.66842,-6.61087 -10.10401,-11.11706 -14.7726,-19.37604 l -2.33083,-4.12336 2.73742,0.46944 c 3.51816,0.60333 9.63998,3.55115 17.43311,8.39452 20.17015,12.5356 37.11391,11.83845 59.15657,-2.43401 4.19199,-2.71429 8.05518,-4.60802 10.87285,-5.32988 2.40382,-0.61583 4.50418,-0.98609 4.66747,-0.8228 0.46097,0.46098 -7.10326,12.22086 -11.05568,17.18794 -7.55474,9.49416 -16.38669,15.99688 -25.63725,18.87598 -5.59151,1.74027 -15.72805,1.73844 -21.17156,-0.004 z"
     id="path875" />
  <path
     style="fill:#eaa083;fill-opacity:1;stroke-width:0.708946;stroke:none"
     d="m 85.647185,253.35535 c -4.390028,-5.22903 -5.51367,-8.2791 -5.51367,-14.96667 0,-5.39412 0.212205,-6.39849 1.88634,-8.92828 2.275762,-3.4389 5.701162,-5.19889 10.11843,-5.19889 2.708212,0 8.017775,1.45688 8.265355,2.2679 0.0359,0.11738 0.43462,4.08415 0.88619,8.81505 l 0.82104,8.60163 -4.076446,-0.36997 c -2.242042,-0.20349 -4.076445,-0.17804 -4.076445,0.0565 0,0.23458 1.914158,1.72639 4.253678,3.31514 2.339523,1.58874 4.253683,3.19576 4.253683,3.57115 0,0.37539 -2.07275,0.68253 -4.606108,0.68253 -4.245503,0 -4.815682,0.18933 -7.282912,2.41832 l -2.676795,2.41832 z"
     id="path877" />
  <path
     style="fill:#eaa083;fill-opacity:1;stroke-width:0.708946;stroke:none"
     d="m 308.34868,254.67364 c -1.88623,-2.08427 -4.80466,-3.47215 -7.3012,-3.47215 -3.56337,0 -3.15082,-1.2029 1.50011,-4.37397 4.75482,-3.24191 4.57259,-3.82181 -1.03297,-3.28723 l -2.8444,0.27126 0.49496,-7.38907 c 0.60376,-9.01316 1.07238,-10.34889 3.98726,-11.36502 9.73809,-3.39472 18.23703,3.56561 17.54268,14.36682 -0.33108,5.1503 -2.53105,10.07523 -6.24428,13.97863 -2.98714,3.14014 -4.18468,3.38951 -6.10216,1.27073 z"
     id="path879" />
  <path
     style="fill:#e04a71;fill-opacity:1;stroke:none;stroke-width:0.75px;stroke-linecap:butt;stroke-linejoin:miter;stroke-opacity:1"
     d="m 39.91565,357.79893 c 17.14473,-29.69518 28.02175,-42.53374 40.14067,-50.02796 4.46535,-2.76132 9.0295,-5.55324 14.93271,-4.24176 L 76.02765,406.18015 C 62.51319,392.36624 51.37724,383.44164 39.91565,357.79893 Z"
     id="path883"
     sodipodi:nodetypes="csccc" />
  <path
     style="fill:#e04a71;fill-opacity:1;stroke:none;stroke-width:0.75px;stroke-linecap:butt;stroke-linejoin:miter;stroke-opacity:1"
     d="m 324.25737,405.32278 c 16.926,-13.538 29.0089,-29.39202 38.1854,-46.49994 -16.41634,-25.8683 -27.38482,-38.59377 -37.18977,-47.17753 -5.56473,-4.87164 -11.89045,-8.7604 -19.38871,-8.99593 z"
     id="path900"
     sodipodi:nodetypes="ccscc" />
  <path
     style="fill:#e04a71;fill-opacity:1;stroke:none;stroke-width:0.75px;stroke-linecap:butt;stroke-linejoin:miter;stroke-opacity:1"
     d="m 154.77079,86.428764 c -0.47321,-6.45802 1.19677,-14.7882 22.19695,-26.34186 7.17356,-4.53403 16.11039,-6.27939 25.41056,-7.45011 12.76788,1.01569 18.03939,2.38221 28.29077,7.90561 11.51529,7.67571 14.51353,16.35938 15.86601,25.23781 -33.36231,-11.18899 -59.98918,-9.18629 -91.76429,0.64855 z"
     id="path913"
     sodipodi:nodetypes="cccccc" />
  <path
     style="fill:#ffffff;fill-opacity:1;stroke-width:1.89052;stroke:none"
     d="m 128.83506,290.27127 c -5.8815,-2.36661 -7.15421,-8.80781 -7.08984,-35.88197 0.0637,-26.81735 2.90876,-40.26097 13.07683,-61.79237 8.32118,-17.62054 13.81216,-25.55255 27.06282,-39.09376 18.40267,-18.80617 41.99119,-32.40407 68.03863,-39.22172 20.57865,-5.38625 59.72441,-5.39704 80.25698,-0.0221 50.6454,13.25772 88.46534,49.12824 103.89359,98.53842 3.82743,12.25762 4.42735,18.07616 4.42735,42.93974 0,32.19823 -0.60329,33.87219 -12.55365,34.83311 -5.68265,0.45694 -8.22129,-0.65652 -14.56638,-6.38893 -9.44506,-8.53306 -15.89708,-11.86791 -46.84862,-24.21457 -33.66314,-13.42834 -49.00843,-21.18791 -61.88058,-31.29082 -13.27507,-10.41914 -17.31939,-18.66766 -19.13423,-39.02484 -0.71779,-8.05142 -1.97732,-15.05443 -2.79897,-15.56224 -0.82164,-0.5078 -5.10115,10.17795 -9.51001,23.74612 -7.41263,22.8122 -8.80711,25.52378 -18.5232,36.01831 -10.76549,11.62801 -16.6367,14.96862 -67.43258,38.36787 -8.27316,3.81105 -18.62517,9.86523 -23.00447,13.45374 -4.3793,3.5885 -8.24455,6.47062 -8.58945,6.40472 -0.3449,-0.0659 -2.5158,-0.87982 -4.82422,-1.80869 z"
     id="path953"
     transform="scale(0.75)" />
  <path
     style="fill:#ffffff;fill-opacity:1;stroke-width:1.89052;stroke:none"
     d="m 207.0942,82.758327 c -1.54128,-12.682069 1.10354,-32.962175 5.09276,-39.050495 4.52405,-6.904563 23.72073,-15.660641 39.00302,-17.790232 26.7936,-3.733694 61.8199,3.239586 72.20573,14.375219 7.72335,8.280942 9.49001,13.324367 10.36839,29.599488 1.10676,20.506468 -0.47937,22.480947 -11.08084,13.793846 -9.21394,-7.550139 -22.26945,-13.689187 -35.34221,-16.618852 -9.32932,-2.090744 -11.50034,-4.104785 -11.5453,-10.710471 -0.0427,-6.2783 -3.00126,-5.166405 -5.02454,1.888356 -1.64179,5.724585 -2.5557,6.284127 -13.44648,8.232625 l -11.68496,2.090589 -3.29781,-9.650519 -3.2978,-9.650519 -1.6595,11.855301 c -1.49672,10.692474 -2.24544,12.152664 -7.63339,14.88699 -3.28564,1.667428 -9.48386,5.873692 -13.77381,9.347254 l -7.7999,6.315562 z"
     id="path955"
     transform="scale(0.75)" />
  <path
     style="fill:#ffffff;fill-opacity:1;stroke-width:1.89052;stroke:none"
     d="m 245.51841,606.67748 c -17.59377,-2.69897 -17.01473,-2.41656 -17.01473,-8.29834 0,-5.36 -0.34408,-5.58592 -8.50736,-5.58592 -7.41382,0 -8.50736,0.5164 -8.50736,4.01737 0,5.19771 -3.9213,4.45453 -30.28101,-5.73903 -25.07054,-9.69503 -50.40896,-24.21396 -47.43986,-27.18306 1.15493,-1.15494 2.09988,-5.75805 2.09988,-10.22914 v -8.12926 h -9.45262 c -9.02822,0 -9.45262,0.23107 -9.45262,5.14643 v 5.14643 l -3.85384,-3.85384 c -3.82518,-3.82517 -3.82893,-4.00757 -0.50433,-24.5243 1.84222,-11.36876 3.63296,-18.33095 3.97941,-15.47153 0.59173,4.88393 1.19504,5.19894 9.95695,5.19894 h 9.32705 v -8.50736 -8.50736 h -9.58002 c -8.23109,0 -9.44415,-0.46585 -8.61505,-3.30842 0.53074,-1.81963 1.54172,-7.39156 2.24663,-12.38208 1.46117,-10.34455 4.74816,-14.5579 11.35717,-14.5579 4.18116,0 4.59127,-0.75991 4.59127,-8.50736 0,-7.81417 -0.3851,-8.50736 -4.72631,-8.50736 -3.75574,0 -4.72631,-0.95146 -4.72631,-4.63326 0,-9.44964 4.07557,-23.72461 6.77349,-23.72461 1.92742,0 2.6959,-2.51961 2.73889,-8.97999 0.0573,-8.60399 0.41836,-9.19768 8.6242,-14.17894 4.71044,-2.85942 9.23074,-5.19894 10.04512,-5.19894 4.17168,0 8.69049,8.80941 10.00965,19.51378 3.49216,28.33728 3.91242,37.20196 1.76369,37.20196 -3.15075,0 -2.77458,16.36843 0.40421,17.58824 1.5345,0.58884 3.01445,5.43355 3.719,12.17436 0.64364,6.15798 1.71456,12.61476 2.37982,14.34842 0.93851,2.4457 0.10507,3.1521 -3.719,3.1521 -4.58093,0 -4.92858,0.60009 -4.92858,8.50736 v 8.50736 h 9.45263 c 8.92589,0 9.45262,-0.27463 9.45262,-4.92858 0,-3.95215 0.65545,-4.65886 3.30842,-3.56719 33.50268,13.78601 52.39274,17.00824 91.0597,15.53277 28.96624,-1.1053 53.82304,-6.47986 67.74438,-14.64773 l 6.1442,-3.6049 v 5.60782 c 0,5.46902 0.23393,5.60781 9.45263,5.60781 h 9.45262 v -8.50736 c 0,-7.87371 -0.36151,-8.50736 -4.85372,-8.50736 -3.71185,0 -4.63779,-0.77831 -3.9359,-3.30842 0.50479,-1.81963 1.48066,-8.25287 2.16859,-14.29609 0.77632,-6.81963 2.26936,-11.37853 3.93592,-12.01804 3.20861,-1.23127 3.67597,-14.00297 0.62408,-17.05486 -2.10376,-2.10377 -1.58483,-14.84521 1.54531,-37.94249 1.07669,-7.94488 2.91302,-13.14387 5.58698,-15.81782 l 3.9831,-3.98312 9.64983,5.41993 c 9.4416,5.30298 9.64988,5.60935 9.65175,14.19766 0.001,5.78543 0.90571,9.12455 2.65314,9.7951 1.45817,0.55955 3.58501,5.37149 4.72632,10.6932 3.16715,14.76791 2.81204,17.05183 -2.65122,17.05183 -4.32416,0 -4.72631,0.70668 -4.72631,8.3051 0,8.5454 1.8553,10.60015 9.57123,10.60015 3.76092,0 4.23232,1.21685 7.14097,18.43261 l 1.67688,9.92526 h -9.19453 -9.19455 v 8.50736 8.50736 h 9.45262 c 8.48241,0 9.4734,-0.4366 9.65503,-4.25368 0.11135,-2.33952 1.77915,4.63241 3.70629,15.4932 2.54163,14.3238 2.94166,20.42433 1.45663,22.21366 -2.98761,3.59986 -5.36532,3.01743 -5.36532,-1.31426 0,-3.28571 -1.26036,-3.78105 -9.62054,-3.78105 h -9.62054 l 0.64054,11.27495 0.64055,11.27495 -15.1242,8.37688 c -15.41218,8.5364 -46.12727,21.30812 -55.98675,23.28001 -4.64421,0.92884 -5.4553,0.49377 -5.4553,-2.9263 0,-3.56049 -1.07501,-4.01737 -9.45262,-4.01737 -9.22915,0 -9.45263,0.13328 -9.45263,5.63556 0,6.18215 -0.64313,6.47853 -18.43261,8.49424 l -9.92526,1.12464 v -7.62723 -7.62721 h -8.50736 -8.50736 v 7.5621 c 0,8.08755 -0.41941,8.28791 -13.23367,6.32216 z M 228.50368,555.92799 V 545.5301 h -8.61094 -8.61095 l 0.57622,8.98 c 0.571,8.89867 0.64469,8.9904 8.13831,10.12961 4.15916,0.63229 7.77479,1.27034 8.03473,1.41789 0.25995,0.14755 0.47263,-4.41077 0.47263,-10.12961 z m -45.37259,-0.94526 v -9.45263 h -9.45262 -9.45263 v 9.45263 9.45262 h 9.45263 9.45262 z m 92.63571,0 v -9.45263 h -8.50736 -8.50736 v 9.45263 9.45262 h 8.50736 8.50736 z m 47.26312,0 v -9.45263 h -9.45262 -9.45263 v 9.45263 9.45262 h 9.45263 9.45262 z m 47.26312,0 v -9.45263 h -9.45262 -9.45263 v 9.45263 9.45262 h 9.45263 9.45262 z"
     id="path957"
     transform="scale(0.75)" />
  <path
     style="fill:#ffffff;fill-opacity:1;stroke-width:1.89052;stroke:none"
     d="m 284.55857,492.85347 -9.16822,-3.22994 10.48058,-3.30371 c 13.96862,-4.40322 27.50704,-14.90183 40.58114,-31.46937 11.96108,-15.15711 13.08608,-14.61815 10.05993,4.81943 -2.50375,16.0821 -8.39571,28.02937 -16.20252,32.85424 -7.74376,4.78591 -22.70958,4.92378 -35.75091,0.32935 z"
     id="path959"
     transform="scale(0.75)" />
  <path
     style="fill:#ffffff;fill-opacity:1;stroke-width:1.89052;stroke:none"
     d="m 215.27001,493.0651 c -9.75476,-4.87304 -16.67903,-19.83658 -18.15132,-39.22545 l -1.14845,-15.12419 5.23448,7.56209 c 15.99912,23.11346 27.1453,32.6569 46.19932,39.55619 l 11.45377,4.14731 -10.14428,3.19771 c -13.0146,4.10249 -25.08585,4.06147 -33.44352,-0.11366 z"
     id="path961"
     transform="scale(0.75)" />
  <path
     style="fill:#ffffff;fill-opacity:1;stroke-width:1.89052;stroke:none"
     d="m 310.85083,372.56198 c -17.06006,-6.07736 -26.56987,-19.47571 -26.36259,-37.14217 0.43313,-36.91537 48.40736,-51.50688 69.50216,-21.13929 14.61941,21.04575 3.65712,51.44886 -21.24024,58.90829 -9.24173,2.76889 -12.64011,2.67162 -21.89933,-0.62683 z m 18.76826,-34.95902 c 2.34067,-2.58642 4.77871,-3.40296 7.8551,-2.63084 5.85309,1.46903 5.77578,-1.92838 -0.17941,-7.88356 -6.40505,-6.40505 -15.91077,-6.25992 -22.51443,0.34374 -5.15432,5.15432 -6.76141,11.0476 -2.63783,9.67308 1.29045,-0.43015 3.47806,0.34969 4.86135,1.73298 3.60211,3.60211 8.68806,3.10405 12.61521,-1.2354 z"
     id="path963"
     transform="scale(0.75)" />
  <path
     style="fill:#ffffff;fill-opacity:1;stroke-width:1.89052;stroke:none"
     d="m 199.41887,372.6992 c -9.37435,-3.46852 -21.28281,-15.0601 -24.03312,-23.39363 -1.17301,-3.55426 -1.77099,-11.4635 -1.32885,-17.57607 0.63445,-8.77121 1.99747,-12.61423 6.46652,-18.23228 23.44081,-29.46747 68.77604,-14.46653 68.77604,22.75724 0,26.05319 -26.20967,45.20301 -49.88059,36.44474 z m 17.6484,-34.06918 c 1.24313,-1.49788 3.47414,-2.25759 4.9578,-1.68826 4.1772,1.60294 3.19769,-2.26597 -2.1968,-8.67695 -5.92918,-7.04643 -14.76118,-7.79952 -22.26329,-1.89836 -6.46028,5.08165 -6.6961,9.81784 -0.41029,8.2402 3.42509,-0.85964 5.10052,-0.15778 6.68335,2.79977 2.44706,4.57237 9.87948,5.25981 13.22923,1.2236 z"
     id="path965"
     transform="scale(0.75)" />
  <path
     style="fill:#3e354b;fill-opacity:1;stroke:none;stroke-width:0.472631"
     d="m 170.18066,563.22164 c -4.06856,-0.14659 -4.33319,-0.2199 -4.84447,-1.34204 -0.32346,-0.70992 -0.54083,-3.83746 -0.54083,-7.78159 v -6.59459 h 8.27105 8.27104 v 8.03473 8.03473 l -3.42657,-0.0981 c -1.88462,-0.0539 -5.36322,-0.16787 -7.73022,-0.25315 z"
     id="path967"
     transform="scale(0.75)" />
  <path
     style="fill:#3e354b;fill-opacity:1;stroke:none;stroke-width:0.472631"
     d="m 224.34689,563.79237 c -1.68966,-0.32455 -4.34821,-0.61596 -5.90789,-0.64756 -5.63814,-0.11426 -5.90789,-0.55111 -5.90789,-9.56772 v -6.07367 h 7.79841 7.79842 v 8.50736 c 0,4.67905 -0.15951,8.47683 -0.35447,8.43952 -0.19496,-0.0373 -1.73692,-0.33338 -3.42658,-0.65793 z"
     id="path969"
     transform="scale(0.75)" />
  <path
     style="fill:#3e354b;fill-opacity:1;stroke:none;stroke-width:0.472631"
     d="m 261.38946,563.13475 c -1.56735,-0.67562 -2.06786,-2.98902 -2.06786,-9.55766 v -6.07367 h 7.79841 7.79842 v 7.50843 7.50844 l -2.00869,0.27301 c -4.18426,0.56871 -10.55504,0.75753 -11.52028,0.34145 z"
     id="path971"
     transform="scale(0.75)" />
  <path
     style="fill:#3e354b;fill-opacity:1;stroke:none;stroke-width:0.472631"
     d="m 118.31996,515.99467 c -0.1733,-0.1733 -0.31509,-3.68258 -0.31509,-7.79841 v -7.48333 h 8.50737 8.50736 v 7.79841 7.79842 h -8.19228 c -4.50575,0 -8.33406,-0.14179 -8.50736,-0.31509 z"
     id="path973"
     transform="scale(0.75)" />
  <path
     style="fill:#3e354b;fill-opacity:1;stroke:none;stroke-width:0.472631"
     d="m 306.11208,555.53815 v -8.03473 h 7.79842 7.79841 v 8.03473 8.03473 h -7.79841 -7.79842 z"
     id="path975"
     transform="scale(0.75)" />
  <path
     style="fill:#3e354b;fill-opacity:1;stroke:none;stroke-width:0.472631"
     d="m 352.42994,555.61019 v -8.10677 h 8.55688 8.55689 l -0.16768,7.52287 c -0.0922,4.13758 -0.30753,7.66264 -0.47844,7.83347 -0.17092,0.17083 -3.94606,0.43359 -8.38921,0.5839 l -8.07844,0.27331 z"
     id="path977"
     transform="scale(0.75)" />
  <path
     style="fill:#3e354b;fill-opacity:1;stroke:none;stroke-width:0.472631"
     d="m 399.22043,508.51134 v -7.79841 h 8.50736 8.50736 v 7.79841 7.79842 h -8.50736 -8.50736 z"
     id="path979"
     transform="scale(0.75)" />
  <path
     style="fill:#3e354b;fill-opacity:1;stroke:none;stroke-width:0.472631"
     d="m 261.92107,394.966 c -3.36495,-1.21018 -6.49589,-3.51561 -9.22021,-6.78921 -2.27039,-2.72815 -2.79979,-3.73113 -1.96941,-3.73113 0.21442,0 1.96906,0.55506 3.89921,1.23347 2.60498,0.91561 4.78825,1.29386 8.47199,1.46779 6.22714,0.29402 9.48255,-0.48393 15.41901,-3.68469 5.85213,-3.15528 6.33314,-3.09446 4.34533,0.54942 -4.94393,9.06278 -13.60735,13.5936 -20.94592,10.95435 z"
     id="path981"
     transform="scale(0.75)" />
  <path
     style="fill:#3e354b;fill-opacity:1;stroke:none;stroke-width:0.472631"
     d="m 319.28114,338.95249 c -0.94535,-0.58355 -2.29354,-1.75223 -2.99596,-2.59705 -1.26194,-1.51778 -3.17947,-2.05545 -3.79257,-1.06342 -0.47453,0.76779 -1.18158,0.54034 -1.18158,-0.3801 0,-1.20214 2.32382,-4.69752 4.67693,-7.03481 2.94226,-2.92248 6.21655,-4.40087 9.74692,-4.40087 4.64752,0 7.09374,1.08996 10.6256,4.73445 3.48319,3.59427 5.18906,6.13606 4.11808,6.13606 -0.36393,0 -1.89803,-0.42536 -3.40913,-0.94526 -4.1607,-1.43149 -5.23842,-1.29062 -6.32763,0.82711 -1.67936,3.26512 -5.25175,5.79186 -8.18231,5.78731 -0.85774,-0.001 -2.333,-0.47987 -3.27835,-1.06342 z"
     id="path983"
     transform="scale(0.75)" />
  <path
     style="fill:#3e354b;fill-opacity:1;stroke:none;stroke-width:0.472631"
     d="m 208.31762,339.67446 c -0.88771,-0.43724 -2.27015,-1.74738 -3.0721,-2.91143 -2.36584,-3.43407 -2.90635,-3.83417 -5.17971,-3.83417 -1.13708,0 -2.97164,0.31903 -4.07679,0.70895 -2.86644,1.01133 -2.9871,0.92906 -1.78648,-1.21807 1.60626,-2.87256 4.51494,-6.03473 6.45219,-7.01451 3.68763,-1.86503 9.69732,-2.45719 12.60551,-1.24207 3.23843,1.3531 9.66876,8.49404 9.66876,10.73726 0,0.92991 -0.70457,1.16342 -1.18158,0.3916 -0.66682,-1.07893 -2.48068,-0.39189 -4.50975,1.70818 -3.31495,3.43095 -5.84424,4.18924 -8.92005,2.67426 z"
     id="path985"
     transform="scale(0.75)" />
</svg>
