<?xml version="1.0" encoding="UTF-8" standalone="no"?>
<svg
   xmlns:dc="http://purl.org/dc/elements/1.1/"
   xmlns:cc="http://creativecommons.org/ns#"
   xmlns:rdf="http://www.w3.org/1999/02/22-rdf-syntax-ns#"
   xmlns:svg="http://www.w3.org/2000/svg"
   xmlns="http://www.w3.org/2000/svg"
   xmlns:sodipodi="http://sodipodi.sourceforge.net/DTD/sodipodi-0.dtd"
   xmlns:inkscape="http://www.inkscape.org/namespaces/inkscape"
   width="119.07878"
   height="132.39243"
   stroke="none"
   stroke-linecap="round"
   stroke-linejoin="round"
   fillfill-rule="nonzero"
   version="1.1"
   id="svg138"
   sodipodi:docname="testtry_dbm.svg"
   inkscape:version="1.0 (262b4497e3, 2020-09-04)">
  <metadata
     id="metadata144">
    <rdf:RDF>
      <cc:Work
         rdf:about="">
        <dc:format>image/svg+xml</dc:format>
        <dc:type
           rdf:resource="http://purl.org/dc/dcmitype/StillImage" />
      </cc:Work>
    </rdf:RDF>
  </metadata>
  <defs
     id="defs142" />
  <sodipodi:namedview
     pagecolor="#ffffff"
     bordercolor="#666666"
     borderopacity="1"
     objecttolerance="10"
     gridtolerance="10"
     guidetolerance="10"
     inkscape:pageopacity="0"
     inkscape:pageshadow="2"
     inkscape:window-width="1764"
     inkscape:window-height="992"
     id="namedview140"
     showgrid="false"
     inkscape:zoom="3.872807"
     inkscape:cx="56.5675"
     inkscape:cy="70.066297"
     inkscape:window-x="0"
     inkscape:window-y="0"
     inkscape:window-maximized="0"
     inkscape:current-layer="svg138"
     inkscape:document-rotation="0" />
  <path
     d="M 88.4511,16.2094 H 65.0975 v 83.852 H 49.53 V 16.2094 H 26.03 V 0 h 62.422 z"
     id="path92"
     style="fill-opacity:1;stroke:none" />
  <path
     d="m 0.0352,107.08953 v -0.1473 h 3.889 l 16.4327,0.037 -0.0352,7.808 h -3.889 v -4.2354 l -4.0294,-0.037 v 15.3583 q 0,1.289 -0.4555,2.0257 -0.4204,0.6998 -0.946,0.884 l 4.3798,0.037 -0.0353,3.5726 -10.336,-0.037 v -3.5725 h 0.5606 q 1.2613,0 1.787,-0.5893 0.5606,-0.5893 0.5606,-2.173 v -15.5057 H 3.8892 v 4.2355 H 0 Z"
     id="path94" />
  <path
     d="m 47.352718,128.78283 h 0.5606 q 1.2264,0 1.787,-0.5893 0.5606,-0.5893 0.5606,-2.173 v -13.1116 q 0,-1.3628 -0.3855,-1.8784 -0.3504,-0.5156 -1.4715,-0.5156 h -1.0862 l 0.0352,-3.5726 9.25,0.037 q 6.2017,0.037 9.39,3.3516 3.2235,3.3147 3.2235,9.318 0,2.7255 -0.876,5.0826 -0.876,2.3203 -2.5928,4.0514 -1.6818,1.6942 -4.2045,2.6518 -2.4876,0.9576 -5.711,0.9576 l -8.514,-0.037 z m 8.444,0.037 q 2.3125,0 3.9593,-0.6998 1.6818,-0.6997 2.733,-1.915 1.086,-1.2523 1.5767,-2.9097 0.5256,-1.6942 0.5256,-3.6462 0,-4.3092 -1.9622,-6.7032 -1.962,-2.394 -6.3417,-2.4308 h -1.5417 v 15.3583 q 0,1.2892 -0.4555,2.0257 -0.4204,0.6998 -0.98,0.884 z"
     id="path108" />
  <path
     d="m 101.59448,128.81983 -0.0352,3.5725 -10.0557,-0.037 0.0352,-3.5726 h 0.5606 q 1.2263,0 1.787,-0.5893 0.5606,-0.5893 0.5606,-2.173 v -13.1116 q 0,-1.3628 -0.3854,-1.8784 -0.3504,-0.5157 -1.4716,-0.5157 h -1.0862 l 0.0352,-3.5725 7.2178,0.037 6.7622,12.596 6.377,-12.633 7.1826,0.037 v 3.5726 l -2.943,-0.037 v 15.3583 q 0,1.289 -0.4555,2.0257 -0.4205,0.6998 -0.981,0.884 l 4.3797,0.037 v 3.5726 l -10.371,-0.037 0.0352,-3.5725 h 0.5256 q 1.2613,0 1.822,-0.5893 0.5606,-0.5893 0.5606,-2.173 v -11.8963 l -5.64,11.1596 h -1.7537 l -5.641,-10.644 v 11.2333 q 0,1.289 -0.4554,2.0257 -0.4205,0.6998 -0.946,0.884 z"
     id="path124" />
</svg>
