<?xml version="1.0" encoding="UTF-8" standalone="no"?>
<svg
   xmlns:dc="http://purl.org/dc/elements/1.1/"
   xmlns:cc="http://creativecommons.org/ns#"
   xmlns:rdf="http://www.w3.org/1999/02/22-rdf-syntax-ns#"
   xmlns:svg="http://www.w3.org/2000/svg"
   xmlns="http://www.w3.org/2000/svg"
   xmlns:sodipodi="http://sodipodi.sourceforge.net/DTD/sodipodi-0.dtd"
   xmlns:inkscape="http://www.inkscape.org/namespaces/inkscape"
   viewBox="0 0 496 496"
   version="1.1"
   id="svg14"
   sodipodi:docname="TFTP.svg"
   inkscape:version="1.0 (262b4497e3, 2020-09-04)">
  <metadata
     id="metadata20">
    <rdf:RDF>
      <cc:Work
         rdf:about="">
        <dc:format>image/svg+xml</dc:format>
        <dc:type
           rdf:resource="http://purl.org/dc/dcmitype/StillImage" />
      </cc:Work>
    </rdf:RDF>
  </metadata>
  <defs
     id="defs18" />
  <sodipodi:namedview
     pagecolor="#ffffff"
     bordercolor="#666666"
     borderopacity="1"
     objecttolerance="10"
     gridtolerance="10"
     guidetolerance="10"
     inkscape:pageopacity="0"
     inkscape:pageshadow="2"
     inkscape:window-width="1920"
     inkscape:window-height="1054"
     id="namedview16"
     showgrid="false"
     inkscape:zoom="0.66759073"
     inkscape:cx="342.43331"
     inkscape:cy="373.67145"
     inkscape:window-x="0"
     inkscape:window-y="0"
     inkscape:window-maximized="1"
     inkscape:current-layer="text847"
     inkscape:document-rotation="0" />
  <path
     d="m 234.25383,133.06282 h 27.49236 v 13.30628 h -27.49236 z m 0,0"
     id="path2"
     style="stroke-width:0.845278" />
  <path
     d="m 440.44655,106.45026 c 11.36678,0 20.61928,-8.956403 20.61928,-19.959426 V 19.959423 C 461.06583,8.9564012 451.81333,0 440.44655,0 H 344.22328 C 332.8565,0 323.60401,8.9564012 323.60401,19.959423 v 66.531411 c 0,11.003023 9.25249,19.959426 20.61927,19.959426 h 20.61927 v 13.30628 h -13.74618 v 13.30628 h 34.36546 v 66.53141 H 357.0969 c -5.48371,-5.18152 -12.23598,-9.14807 -19.7937,-11.33113 0.0336,-0.67246 0.047,-1.32218 0.047,-1.97515 0,-29.34789 -24.66661,-53.22513 -54.98473,-53.22513 -18.81039,0 -36.29516,9.47293 -46.30947,24.62442 -7.05431,-3.06668 -14.6825,-4.66499 -22.42144,-4.66499 -22.81074,0 -43.34947,13.91702 -51.38374,34.33124 -5.22194,1.08504 -10.08814,3.0277 -14.508,5.5876 H 96.792003 v -19.95942 h 27.492367 c 11.36677,0 20.61927,-8.9564 20.61927,-19.95942 V 19.959423 C 144.90364,8.9564012 135.65114,0 124.28437,0 H 55.553456 C 44.186679,0 34.934183,8.9564012 34.934183,19.959423 V 153.02225 c 0,11.00302 9.252496,19.95942 20.619273,19.95942 h 27.492365 v 33.2657 h 50.078249 c -2.92307,4.03802 -5.19173,8.4951 -6.68179,13.30629 H 96.792003 v 73.18455 H 69.299638 c -11.366777,0 -20.619273,8.9564 -20.619273,19.95942 V 372.5759 H 34.934183 v 19.95943 c 0,11.00302 9.252496,19.95942 20.619273,19.95942 H 165.52291 c 11.36678,0 20.61927,-8.9564 20.61927,-19.95942 V 372.5759 H 172.396 v -59.87827 c 0,-11.00302 -9.25249,-19.95942 -20.61927,-19.95942 h -41.23855 v -59.87827 h 13.74619 c 0,25.67372 21.58915,46.57199 48.11163,46.57199 h 151.20801 c 24.1867,0 44.2086,-17.38978 47.56125,-39.91885 h 28.04275 v 53.22513 H 351.09637 V 412.49475 H 461.06583 V 292.73821 H 412.95419 V 226.2068 h -41.81578 c -0.71483,-4.68449 -2.19818,-9.14157 -4.27555,-13.30628 h 32.34515 v -79.8377 h 34.36545 v -13.30628 h -13.74618 v -13.30628 z m -309.28909,0 H 48.680365 V 39.918847 H 131.15746 Z M 55.553456,13.306282 h 68.730914 c 3.79228,0 6.87309,2.982219 6.87309,6.653141 v 6.653141 H 48.680365 v -6.653141 c 0,-3.670922 3.08081,-6.653141 6.873091,-6.653141 z M 48.680365,153.02225 v -33.26571 h 82.477095 v 33.26571 c 0,3.67092 -3.08081,6.65314 -6.87309,6.65314 H 55.553456 c -3.792281,0 -6.873091,-2.98222 -6.873091,-6.65314 z M 172.396,392.53533 c 0,3.67092 -3.08081,6.65314 -6.87309,6.65314 H 55.553456 c -3.792281,0 -6.873091,-2.98222 -6.873091,-6.65314 v -6.65315 H 172.396 Z m -13.74618,-79.8377 V 372.5759 H 62.426547 v -59.87827 c 0,-3.67092 3.08081,-6.65314 6.873091,-6.65314 h 82.477092 c 3.79228,0 6.87309,2.98222 6.87309,6.65314 z m 206.19273,86.49084 v -39.91885 h 82.47709 v 39.91885 z m 82.47709,-53.22513 h -82.47709 v -39.91885 h 82.47709 z M 323.60401,266.12564 H 172.396 c -18.94798,0 -34.36545,-14.92408 -34.36545,-33.2657 0,-16.81802 13.0045,-31.00468 30.24093,-32.99932 l 4.51046,-0.52628 1.27193,-4.22318 c 5.08434,-16.94797 21.36766,-28.78263 39.58068,-28.78263 7.58792,0 15.03824,2.06286 21.56902,5.95469 l 6.56098,3.91782 3.2721,-6.76685 c 6.7657,-14.01772 21.41801,-23.06509 37.32881,-23.06509 22.74362,0 41.23855,17.90306 41.23855,39.91885 0,1.83546 -0.17116,3.79112 -0.54368,6.15286 l -1.037,6.58167 6.7959,0.99732 c 16.61892,2.45595 29.15023,16.57438 29.15023,32.84014 0,18.34162 -15.41747,33.2657 -34.36545,33.2657 z M 344.22328,13.306282 h 96.22327 c 3.79228,0 6.87309,2.982219 6.87309,6.653141 V 66.531411 H 337.35019 V 19.959423 c 0,-3.670922 3.08081,-6.653141 6.87309,-6.653141 z m -6.87309,73.184552 v -6.653141 h 109.96945 v 6.653141 c 0,3.670923 -3.08081,6.653141 -6.87309,6.653141 h -96.22327 c -3.79228,0 -6.87309,-2.982218 -6.87309,-6.653141 z m 68.73091,33.265706 h -27.49237 v -13.30628 h 27.49237 z m 0,0"
     id="path4"
     style="stroke-width:0.845278" />
  <path
     d="m 241.12691,319.35077 h 13.74619 v 13.30629 h -13.74619 z m 0,0"
     id="path6"
     style="stroke-width:0.845278" />
  <path
     d="m 241.12692,372.5759 h 13.74618 v 13.30628 h -13.74618 z m 0,0"
     id="path8"
     style="stroke-width:0.845278" />
  <path
     d="m 234.25383,319.35077 h 27.49236 v 13.30629 h -27.49236 z m 0,0"
     id="path10"
     style="stroke-width:0.845278" />
  <path
     d="m 234.25382,372.5759 h 27.49237 v 13.30628 h -27.49237 z m 0,0"
     id="path12"
     style="stroke-width:0.845278" />
  <g
     aria-label="TFTP"
     id="text847"
     style="font-style:normal;font-weight:normal;font-size:80px;line-height:1.25;font-family:sans-serif;;fill-opacity:1;stroke:none;stroke-width:0.75">
    <path
       d="m 85.443807,428.11288 h 49.335943 v 6.64063 h -20.70313 v 51.67969 h -7.92968 V 434.75351 H 85.443807 Z"
       style="font-size:80px;stroke-width:0.75;stroke:none;fill-opacity:1;stroke-opacity:1"
       id="path849" />
    <path
       d="m 186.25088,427.99309 h 33.51562 v 6.64063 h -25.625 v 17.1875 h 23.125 v 6.64062 h -23.125 v 27.85157 h -7.89062 z"
       style="font-size:80px;stroke-width:0.75;stroke:none;fill-opacity:1;stroke-opacity:1"
       id="path851" />
    <path
       d="m 271.23767,428.41294 h 49.33594 v 6.64063 h -20.70313 v 51.67969 h -7.92968 v -51.67969 h -20.70313 z"
       style="font-size:80px;stroke-width:0.75;stroke:none;fill-opacity:1;stroke-opacity:1"
       id="path853" />
    <path
       d="m 377.86503,435.94746 v 21.91406 h 9.92188 q 5.50781,0 8.51562,-2.85156 3.00782,-2.85156 3.00782,-8.125 0,-5.23438 -3.00782,-8.08594 -3.00781,-2.85156 -8.51562,-2.85156 z m -7.89062,-6.48438 h 17.8125 q 9.80469,0 14.80469,4.45313 5.03906,4.41406 5.03906,12.96875 0,8.63281 -5.03906,13.04687 -5,4.41407 -14.80469,4.41407 h -9.92188 v 23.4375 h -7.89062 z"
       style="font-size:80px;stroke-width:0.75;fill:inherit;stroke:none;fill-opacity:1;stroke-opacity:1"
       id="path855" />
  </g>
</svg>
