<?xml version="1.0" encoding="utf-8"?>
<!-- Svg Vector Icons : http://www.onlinewebfonts.com/icon -->
<!DOCTYPE svg PUBLIC "-//W3C//DTD SVG 1.1//EN" "http://www.w3.org/Graphics/SVG/1.1/DTD/svg11.dtd">
<svg version="1.1" xmlns="http://www.w3.org/2000/svg" xmlns:xlink="http://www.w3.org/1999/xlink" x="0px" y="0px" viewBox="0 0 1000 1000" enable-background="new 0 0 1000 1000" xml:space="preserve">
<metadata> Svg Vector Icons : http://www.onlinewebfonts.com/icon </metadata>
<g><path d="M826.7,19.6c40.8,0,79.4,16,108.6,45.2s45.2,67.7,45.2,108.6v653.3c0,40.8-16,79.4-45.2,108.6s-67.7,45.2-108.6,45.2H173.3c-40.8,0-79.4-16-108.6-45.2c-29.1-29.1-45.2-67.7-45.2-108.6V173.3c0-40.8,16-79.4,45.2-108.6c29.1-29.1,67.7-45.2,108.6-45.2H826.7 M826.7,10H173.3C83.5,10,10,83.5,10,173.3v653.3C10,916.5,83.5,990,173.3,990h653.3c89.8,0,163.3-73.5,163.3-163.3V173.3C990,83.5,916.5,10,826.7,10L826.7,10z"/><path d="M276.3,223h277.8c51.2,0,92.4,11.7,123.3,35.2c30.9,23.5,46.4,58.9,46.4,106.5c0,28.8-7,53.5-21.1,74c-14.1,20.5-34.3,36.5-60.5,47.7v1.6c35.2,7.5,62,24.2,80.1,50c18.1,25.9,27.2,58.3,27.2,97.4c0,22.4-4,43.4-12,62.8c-8,19.5-20.5,36.3-37.6,50.4c-17.1,14.1-38.9,25.3-65.7,33.6c-26.7,8.3-58.4,12.5-95.3,12.5H276.3V223L276.3,223z M376.4,462.4h163.3c24,0,44-6.7,60-20.5c16-13.8,24-33.3,24-58.9c0-28.8-7.2-49.2-21.6-60.8c-14.4-11.7-35.2-17.6-62.5-17.6H376.4V462.4L376.4,462.4z M376.4,713h176.9c30.4,0,54.1-7.8,70.8-23.7c16.8-15.7,25.3-38.1,25.3-66.9c0-28.3-8.3-50-25.3-65.3c-17-15.4-40.4-22.7-70.8-22.7H376.4V713z"/></g>
</svg>