<?xml version="1.0" encoding="UTF-8" standalone="no"?>
<svg
   xmlns:dc="http://purl.org/dc/elements/1.1/"
   xmlns:cc="http://creativecommons.org/ns#"
   xmlns:rdf="http://www.w3.org/1999/02/22-rdf-syntax-ns#"
   xmlns:svg="http://www.w3.org/2000/svg"
   xmlns="http://www.w3.org/2000/svg"
   xmlns:sodipodi="http://sodipodi.sourceforge.net/DTD/sodipodi-0.dtd"
   xmlns:inkscape="http://www.inkscape.org/namespaces/inkscape"
   preserveAspectRatio="xMidYMid"
   viewBox="0 0 224.5264 245.83144"
   version="1.1"
   id="svg4"
   sodipodi:docname="sql.svg"
   inkscape:version="1.0 (b51213c273, 2020-08-10)">
  <metadata
     id="metadata10">
    <rdf:RDF>
      <cc:Work
         rdf:about="">
        <dc:format>image/svg+xml</dc:format>
        <dc:type
           rdf:resource="http://purl.org/dc/dcmitype/StillImage" />
      </cc:Work>
    </rdf:RDF>
  </metadata>
  <defs
     id="defs8" />
  <sodipodi:namedview
     pagecolor="#ffffff"
     bordercolor="#666666"
     borderopacity="1"
     objecttolerance="10"
     gridtolerance="10"
     guidetolerance="10"
     inkscape:pageopacity="0"
     inkscape:pageshadow="2"
     inkscape:window-width="1259"
     inkscape:window-height="1051"
     id="namedview6"
     showgrid="false"
     inkscape:zoom="1.5609382"
     inkscape:cx="81.634212"
     inkscape:cy="100.5098"
     inkscape:window-x="0"
     inkscape:window-y="0"
     inkscape:window-maximized="0"
     inkscape:current-layer="svg4" />
  <path
     d="M 0,198.51487 V 122.30307 46.090632 C 0,32.92331 12.28923,20.95593 34.603975,12.39222 55.427806,4.401224 83.007175,0 112.26319,0 c 29.25603,0 56.83541,4.401224 77.65987,12.392846 22.30584,8.559947 34.59317,20.521694 34.60269,33.683378 0,0.0042 6.5e-4,0.0087 6.5e-4,0.01444 v 76.211806 6.3e-4 6.2e-4 76.21117 C 210.78489,262.98802 14.155937,260.20387 0,198.51487 Z M 186.28228,21.580022 C 166.59126,14.023879 140.30371,9.86202 112.26319,9.86202 c -28.040505,0 -54.328055,4.161859 -74.019072,11.718628 -17.936764,6.882542 -28.224335,15.817197 -28.224335,24.509984 0,8.692788 10.287571,17.626814 28.224335,24.509994 19.691017,7.55551 45.978567,11.71736 74.019072,11.71736 10.51528,0 20.78313,-0.58523 30.55039,-1.71561 16.27795,-1.88293 31.16165,-5.27909 43.4687,-10.00238 17.93613,-6.88317 28.22305,-15.817202 28.22305,-24.50999 0,-8.692786 -10.28629,-17.626816 -28.22305,-24.509984 z m 28.22496,44.108074 c -0.009,0.009 -0.0196,0.0169 -0.0292,0.0257 -0.0847,0.0764 -0.17491,0.15289 -0.26078,0.22996 -6.94064,6.20959 -15.61771,10.51494 -24.29351,13.84467 -13.66565,5.244 -30.24065,8.94155 -48.28998,10.86457 -9.45497,1.00757 -19.3132,1.52765 -29.36988,1.52765 -29.256025,0 -56.836035,-4.40121 -77.659233,-12.39222 -8.838636,-3.39177 -17.546871,-7.68584 -24.560658,-14.07902 -0.0076,-0.007 -0.01527,-0.0131 -0.02291,-0.0201 V 122.3024 c 0,8.69216 10.286931,17.62618 28.223704,24.50935 16.61441,6.37626 37.924182,10.33573 61.021902,11.41724 4.328385,0.20364 8.663095,0.30201 12.997175,0.30201 31.00327,0 67.53894,-2.24446 92.9481,-21.73791 3.37555,-2.58973 6.52847,-5.65442 8.22801,-9.59007 0.66722,-1.54143 1.06731,-3.22009 1.06731,-4.9 z m 6.5e-4,76.211164 c -0.007,0.006 -0.0152,0.0126 -0.0216,0.0182 -1.60794,1.45308 -3.31003,2.80403 -5.08717,4.05346 -11.05656,7.77607 -24.32722,12.34083 -37.39244,15.61606 -10.80913,2.70941 -22.70783,4.65186 -35.2413,5.75029 -0.1094,0.008 -0.21816,0.0201 -0.32757,0.0294 -4.12482,0.35591 -8.31771,0.61845 -12.56147,0.79015 -3.83287,0.15539 -7.70709,0.23622 -11.61183,0.23622 -29.256015,0 -56.836033,-4.40122 -77.659223,-12.39222 -8.683435,-3.33099 -17.311525,-7.60876 -24.258529,-13.81334 -0.09859,-0.0883 -0.201627,-0.17483 -0.299583,-0.26379 -0.0083,-0.007 -0.01651,-0.015 -0.02545,-0.0225 v 56.61434 c 0,8.69279 10.286923,17.62681 28.223695,24.50999 19.691016,7.55613 45.978565,11.71799 74.01907,11.71799 7.55698,0 14.98483,-0.30515 22.19198,-0.89541 0.51711,-0.0413 1.0336,-0.0859 1.54753,-0.13032 18.93346,-1.66361 36.27553,-5.31795 50.27957,-10.69226 7.65048,-2.93562 13.90353,-6.2453 18.56583,-9.74924 3.9251,-2.95002 7.79168,-6.68641 9.18209,-11.49431 0.009,-0.0326 0.0152,-0.0651 0.0248,-0.0971 0.2913,-1.03264 0.45159,-2.09785 0.45159,-3.16995 z m -17.91942,51.32963 c -5.05601,0 -9.15476,-4.03467 -9.15476,-9.0111 0,-4.97706 4.09875,-9.0111 9.15476,-9.0111 5.05664,0 9.15539,4.03404 9.15539,9.0111 0,4.97643 -4.09874,9.0111 -9.15539,9.0111 z m -31.7748,9.43468 c -5.056,0 -9.15476,-4.03466 -9.15476,-9.01111 0,-4.97705 4.09876,-9.01109 9.15476,-9.01109 5.056,0 9.15539,4.03404 9.15539,9.01109 0,4.97645 -4.09939,9.01111 -9.15539,9.01111 z m -33.71859,5.16128 c -5.056,0 -9.15474,-4.03466 -9.15474,-9.01109 0,-4.97707 4.09873,-9.0111 9.15474,-9.0111 5.05602,0 9.15475,4.03403 9.15475,9.0111 0,4.97643 -4.09872,9.01109 -9.15475,9.01109 z m 65.49339,-91.47446 c -5.05601,0 -9.15476,-4.03403 -9.15476,-9.01111 0,-4.97643 4.09875,-9.011084 9.15476,-9.011084 5.05664,0 9.15539,4.034654 9.15539,9.011084 0,4.97708 -4.09874,9.01111 -9.15539,9.01111 z m -31.7748,9.43467 c -5.056,0 -9.15476,-4.03403 -9.15476,-9.01109 0,-4.97644 4.09876,-9.0111 9.15476,-9.0111 5.056,0 9.15539,4.03466 9.15539,9.0111 0,4.97706 -4.09939,9.01109 -9.15539,9.01109 z m -33.71859,5.1613 c -5.056,0 -9.15474,-4.03405 -9.15474,-9.01111 0,-4.97644 4.09873,-9.0111 9.15474,-9.0111 5.05602,0 9.15475,4.03466 9.15475,9.0111 0,4.97706 -4.09872,9.01111 -9.15475,9.01111 z"
     class="cls-1"
     id="path2"
     style="stroke-width:0.631309"
     sodipodi:nodetypes="ccscscsscccccccscsccsccccccscccsccsscsccccccccsccccscsccccccsccssssssssssssssssssssssssssssss" />
</svg>
