<?xml version="1.0" encoding="UTF-8" standalone="no"?>
<svg
   xmlns:dc="http://purl.org/dc/elements/1.1/"
   xmlns:cc="http://creativecommons.org/ns#"
   xmlns:rdf="http://www.w3.org/1999/02/22-rdf-syntax-ns#"
   xmlns:svg="http://www.w3.org/2000/svg"
   xmlns="http://www.w3.org/2000/svg"
   xmlns:sodipodi="http://sodipodi.sourceforge.net/DTD/sodipodi-0.dtd"
   xmlns:inkscape="http://www.inkscape.org/namespaces/inkscape"
   version="1.0"
   viewBox="0 0 128.000000 128.000000"
   preserveAspectRatio="xMidYMid meet"
   id="svg12"
   sodipodi:docname="vbnet.svg"
   inkscape:version="1.0 (b51213c273, 2020-08-10)">
  <metadata
     id="metadata18">
    <rdf:RDF>
      <cc:Work
         rdf:about="">
        <dc:format>image/svg+xml</dc:format>
        <dc:type
           rdf:resource="http://purl.org/dc/dcmitype/StillImage" />
        <dc:title></dc:title>
      </cc:Work>
    </rdf:RDF>
  </metadata>
  <defs
     id="defs16" />
  <sodipodi:namedview
     pagecolor="#ffffff"
     bordercolor="#666666"
     borderopacity="1"
     objecttolerance="10"
     gridtolerance="10"
     guidetolerance="10"
     inkscape:pageopacity="0"
     inkscape:pageshadow="2"
     inkscape:window-width="1223"
     inkscape:window-height="925"
     id="namedview14"
     showgrid="false"
     inkscape:zoom="2.5869141"
     inkscape:cx="52.566804"
     inkscape:cy="41.9196"
     inkscape:window-x="0"
     inkscape:window-y="0"
     inkscape:window-maximized="0"
     inkscape:current-layer="g10" />
  <g
     transform="matrix(0.1,0,0,-0.1,0,128)"
     stroke="none"
     id="g10">
    <path
       d="M 164.98235,600.3881 307,600 l 31,88 c 17,48 51,141 74,207 l 43,120 3,-207 2,-208 h 123 c 147,1 200,10 233,41 56,53 53,151 -7,186 l -29,17 28,29 c 27.82399,38.9056 -9.21049,149.2136 -9.21049,149.2136 -27.80205,45.0712 -84.03457,40.1773 -84.03457,40.1773 C 621.32366,1062.2138 433.68716,1061.1889 334,1061 L 300,948 C 282,886 261,813 252,785 L 237,735 190,895 140.98568,1061.4312 8.511023,1060.0803 Z M 674,960 c 20,-7 26,-17 26,-39 0,-33 -14,-41 -71,-41 -39,0 -39,0 -39,38 0,21 3,42 7,45 9,10 48,8 77,-3 z m 34,-182 c 19,-19 14,-56 -8,-68 -12,-6 -40,-10 -63,-8 -42,3 -42,3 -45,46 l -3,42 h 53 c 30,0 59,-5 66,-12 z"
       id="path2"
       sodipodi:nodetypes="cccccccccccccccccccccccsssccsccccss" />
    <path
       d="m 1160,560 -142,1 c -153.82265,-4.03508 -164.29997,-7.80826 -215,-71 -46,-66 -25,-197 39,-243 36,-27 114,-33 161,-14 32,14 77,66 77,90 0,20 -54,4 -80,-23 -40,-43 -98,-43 -134,1 -14,17 -26,41 -26,55 v 24 h 120 120 v 30 c 0,17 -7,47 -15,67 -5.5536,13.89665 -15.4613,43.02215 -15.4613,43.02215 L 1160,520 V 390 c 0,-152 9.1013,-170.84813 81.1013,-170.84813 17.7747,0 32.6528,-1.1638 37.8346,1.73718 l 0.044,52.77331 C 1276.4126,269.63578 1258.962,267.75949 1250,270 c -25,6 -25,7 -28,128 l -3,122 h 26 c 9.853,0 25.1887,0.57553 25.1887,0.57553 l -0.3034,39.52126 -51.6359,0.0152 -0.3802,74.89829 -58.0114,0.0957 z M 998,484 c 12,-14 22,-34 22,-45 0,-17 -8,-19 -90,-19 -49,0 -90,4 -90,9 0,26 22,62 47,75 37,21 82,13 111,-20 z"
       id="path4"
       sodipodi:nodetypes="cccccsccscccscccsscccccsccccccsssccs" />
    <path
       d="m 596,559 c -15,-4 -36.78519,-5.98289 -46.78519,-14.98289 -16,-7.37425 -21.74703,-20.47489 -19.34821,19.12359 l -59.29304,-1.09061 c 0,0 -1.09091,-57.72416 -0.26462,-167.45985 L 470,230 532.49011,230.41637 532,351 c 3,114 -4.1085,119.49199 24.31986,149.50575 C 582.75591,511.56416 595,510 624,508 c 75.96007,-5.40326 66,-27.52653 66,-165 V 230 h 25 25 v 134 c 0,125 -2,137 -22,161 -26,30 -80,45 -122,34 z"
       id="path6"
       sodipodi:nodetypes="ccccccccccscccscc" />
    <path
       d="m 377,289 c -27,-15 -22,-57 7,-65 32,-8 46,2 46,31 0,29 -28,47 -53,34 z"
       id="path8" />
  </g>
</svg>
