 <svg version="1.0" xmlns="http://www.w3.org/2000/svg" width="700.000000pt" height="60.000000pt" viewBox="0 0 700.000000 60.000000" preserveAspectRatio="xMidYMid meet">
<metadata>
Created by potrace 1.12, written by Peter Selinger 2001-2015
</metadata>
<g transform="translate(0.000000,60.000000) scale(0.100000,-0.100000)" fill="#000000" stroke="none">
<path d="M6430 519 c-1025 -24 -1307 -30 -1685 -39 -231 -5 -613 -14 -850 -20
-236 -5 -626 -14 -865 -20 -239 -6 -622 -15 -850 -20 -228 -5 -543 -13 -700
-16 -223 -5 -287 -9 -296 -20 -9 -11 -89 -14 -415 -18 -387 -4 -569 -14 -689
-39 -75 -16 -75 -39 0 -49 101 -13 538 -43 830 -58 253 -12 341 -20 335 -29
-2 -4 -64 -11 -137 -15 -129 -6 -267 -15 -532 -35 -71 -5 -133 -14 -139 -20
-11 -11 11 -68 28 -74 5 -2 170 0 365 4 195 4 621 13 945 19 325 6 799 15
1055 20 256 5 742 15 1080 21 577 12 616 13 628 31 12 17 31 18 245 18 128 0
392 -7 587 -16 547 -23 1040 -29 1205 -14 152 14 185 22 185 44 0 19 -22 26
-82 26 -31 0 -55 6 -64 15 -13 12 -53 15 -232 15 -119 0 -289 5 -377 10 -329
20 -1143 60 -1197 60 -16 0 -28 5 -28 10 0 7 323 10 949 10 804 0 950 2 960
14 9 11 9 16 -1 22 -14 9 -919 21 -1733 23 -286 1 -513 5 -505 10 15 8 98 12
675 31 336 11 725 25 1115 41 151 5 364 14 472 18 192 7 230 14 214 40 -8 12
-2 12 -496 0z m-4900 -209 c91 -5 298 -14 460 -20 511 -18 785 -32 794 -41 6
-5 -4 -9 -25 -10 -18 0 -171 -4 -339 -9 -303 -8 -953 6 -1415 30 -610 33 -611
33 -599 51 7 12 914 11 1124 -1z m3375 -60 c77 -6 62 -7 -106 -9 -196 -1 -292
5 -284 19 5 8 253 2 390 -10z"></path>
</g>
</svg>