 <svg version="1.0" xmlns="http://www.w3.org/2000/svg" width="700.000000pt" height="55.000000pt" viewBox="0 0 700.000000 55.000000" preserveAspectRatio="xMidYMid meet">
<metadata>
Created by potrace 1.12, written by Peter Selinger 2001-2015
</metadata>
<g transform="translate(0.000000,55.000000) scale(0.100000,-0.100000)" fill="#000000" stroke="none">
<path d="M5520 429 c-859 -11 -1601 -32 -2150 -59 -113 -6 -387 -10 -610 -9
-223 2 -634 3 -915 3 l-510 1 -3 -23 c-2 -13 -9 -25 -15 -27 -7 -2 -115 -9
-242 -15 -357 -17 -908 -50 -927 -56 -10 -3 -18 -12 -18 -20 0 -18 0 -18 386
6 175 10 423 24 549 30 127 6 311 15 410 20 227 13 365 13 365 1 0 -5 -24 -12
-52 -15 -126 -12 -282 -27 -398 -37 -146 -13 -174 -20 -178 -42 -4 -22 -28
-22 715 3 1776 59 1790 59 2263 26 395 -27 745 -48 1150 -68 270 -13 1371 -16
1463 -4 47 6 57 11 57 27 0 20 -1 20 -105 38 -367 63 -753 91 -1753 125 -222
8 -406 17 -409 19 -13 14 118 17 1210 34 377 5 450 9 454 21 9 23 -18 32 -97
30 -41 -1 -329 -5 -640 -9z m-1492 -115 c160 -12 100 -24 -115 -24 -208 0
-258 4 -247 21 6 10 230 12 362 3z m-1393 -43 c-11 -10 -283 -27 -273 -16 11
11 100 23 193 24 53 1 85 -3 80 -8z m3720 -56 c72 -8 134 -15 138 -15 5 0 5
-4 2 -10 -7 -11 -735 -12 -825 -1 -46 6 -30 8 95 15 83 4 177 11 210 16 98 12
242 11 380 -5z"></path>
</g>
</svg>