<?xml version="1.0" encoding="utf-8"?>
<!-- Generator: Adobe Illustrator 24.2.0, SVG Export Plug-In . SVG Version: 6.00 Build 0)  -->
<svg version="1.1" id="Capa_1" xmlns="http://www.w3.org/2000/svg" xmlns:xlink="http://www.w3.org/1999/xlink" x="0px" y="0px"
	 viewBox="0 0 500 500" style="enable-background:new 0 0 500 500;" xml:space="preserve">
	<style type="text/css">
		.st0{fill:none;stroke-width:3;stroke-miterlimit:10;}
		.st1{fill:none;stroke-width:3;stroke-miterlimit:10;}
		.st2{fill:none;stroke-width:2;stroke-miterlimit:10;}
		<Animation>

		</Animation>
	</style>
<path id="ordena" class="st0" d="M435.42,4.53H63.89C30.6,4.53,3.51,31.52,3.51,64.68v254.74c0,33.16,27.08,60.14,60.38,60.14
	h118.79c7.29,0,13.21,5.93,13.21,13.23v75.38c0,7.31-5.91,13.23-13.21,13.23H93.58c-4.55,0-8.23,3.67-8.23,8.2
	c0,4.53,3.68,8.2,8.23,8.2h110.54h91.07h110.54c4.55,0,8.23-3.67,8.23-8.2c0-4.53-3.68-8.2-8.23-8.2h-89.11
	c-7.29,0-13.21-5.93-13.21-13.23V392.8c0-7.31,5.91-13.23,13.21-13.23h118.79c33.28,0,60.36-26.98,60.36-60.14V64.68
	C495.77,31.52,468.69,4.53,435.42,4.53z M63.89,20.92h371.53c24.21,0,43.9,19.63,43.9,43.76V244.6c0,7.31-5.91,13.23-13.21,13.23
	H33.18c-7.29,0-13.21-5.93-13.21-13.23V64.68C19.97,40.55,39.67,20.92,63.89,20.92z M273.76,481.42h-48.2
	c-7.29,0-13.21-5.93-13.21-13.23V392.8c0-7.31,5.91-13.23,13.21-13.23h48.2c7.29,0,13.21,5.93,13.21,13.23v75.38
	C286.96,475.49,281.05,481.42,273.76,481.42z M435.42,363.18H295.19h-91.07H63.89c-24.22,0-43.92-19.63-43.92-43.75v-31.96
	c0-7.31,5.91-13.23,13.21-13.23h432.94c7.29,0,13.21,5.93,13.21,13.23v31.96C479.32,343.55,459.62,363.18,435.42,363.18z"/>
<g id="botones">
	<path class="st0" d="M386.89,313.79c-9.11,0-16.51,7.38-16.51,16.46c0,9.07,7.41,16.46,16.51,16.46c9.1,0,16.5-7.38,16.5-16.46
		C403.39,321.18,395.99,313.79,386.89,313.79z M386.89,337.91c-4.24,0-7.69-3.44-7.69-7.66c0-4.22,3.45-7.66,7.69-7.66
		c4.23,0,7.68,3.44,7.68,7.66S391.12,337.91,386.89,337.91z"/>
	<path class="st0" d="M432.53,313.79c-9.11,0-16.51,7.38-16.51,16.46c0,9.07,7.41,16.46,16.51,16.46c9.1,0,16.5-7.38,16.5-16.46
		C449.03,321.18,441.63,313.79,432.53,313.79z M432.53,337.91c-4.24,0-7.69-3.44-7.69-7.66c0-4.22,3.45-7.66,7.69-7.66
		c4.23,0,7.68,3.44,7.68,7.66S436.76,337.91,432.53,337.91z"/>
</g>
<g id="lineas">
	<g>
		<g>
			<path d="M255.47,74.79c16.73,0.01,33.47,0.01,50.2,0.02c4.8,0,9.6,0,14.4,0.01c1.61,0,1.61-2.5,0-2.5
				c-16.72-0.01-33.44-0.01-50.17-0.02c-4.81,0-9.62,0-14.43-0.01C253.86,72.29,253.86,74.79,255.47,74.79L255.47,74.79z"/>
		</g>
	</g>
	<g>
		<g>
			<path d="M255.47,95.64c16.73,0.01,33.47,0.01,50.2,0.02c4.8,0,9.6,0,14.4,0.01c1.61,0,1.61-2.5,0-2.5
				c-16.72-0.01-33.44-0.01-50.17-0.02c-4.81,0-9.62,0-14.43-0.01C253.86,93.14,253.86,95.64,255.47,95.64L255.47,95.64z"/>
		</g>
	</g>
	<g>
		<g>
			<path d="M255.47,85.94c16.73,0.01,33.47,0.01,50.2,0.02c4.8,0,9.6,0,14.4,0.01c1.61,0,1.61-2.5,0-2.5
				c-16.72-0.01-33.44-0.01-50.17-0.02c-4.81,0-9.62,0-14.43-0.01C253.86,83.44,253.86,85.94,255.47,85.94L255.47,85.94z"/>
		</g>
	</g>
	<g>
		<g>
			<path d="M175.4,154.2c18.76-0.06,37.52-0.12,56.27-0.18c18.76-0.06,37.52-0.12,56.28-0.18c10.62-0.03,21.25-0.07,31.87-0.1
				c1.61-0.01,1.61-2.51,0-2.5c-18.76,0.06-37.52,0.12-56.28,0.18c-18.76,0.06-37.52,0.12-56.28,0.18
				c-10.62,0.03-21.25,0.07-31.87,0.1C173.79,151.7,173.79,154.2,175.4,154.2L175.4,154.2z"/>
		</g>
	</g>
	<g>
		<g>
			<path d="M175.55,133.34c18.76-0.06,37.52-0.12,56.27-0.18c18.76-0.06,37.52-0.12,56.28-0.18c10.62-0.03,21.25-0.07,31.87-0.1
				c1.61-0.01,1.61-2.51,0-2.5c-18.76,0.06-37.52,0.12-56.28,0.18c-18.76,0.06-37.52,0.12-56.28,0.18
				c-10.62,0.03-21.25,0.07-31.87,0.1C173.95,130.85,173.94,133.35,175.55,133.34L175.55,133.34z"/>
		</g>
	</g>
	<g>
		<g>
			<path d="M175.47,144.49c18.76-0.06,37.52-0.12,56.27-0.18c18.76-0.06,37.52-0.12,56.28-0.18c10.62-0.03,21.25-0.07,31.87-0.1
				c1.61-0.01,1.61-2.51,0-2.5c-18.76,0.06-37.52,0.12-56.28,0.18c-18.76,0.06-37.52,0.12-56.28,0.18
				c-10.62,0.03-21.25,0.07-31.87,0.1C173.86,142,173.86,144.5,175.47,144.49L175.47,144.49z"/>
		</g>
	</g>
	<g>
		<g>
			<path d="M175.91,164.99c18.76-0.06,37.52-0.12,56.27-0.18c18.76-0.06,37.52-0.12,56.28-0.18c10.62-0.03,21.25-0.07,31.87-0.1
				c1.61-0.01,1.61-2.51,0-2.5c-18.76,0.06-37.52,0.12-56.28,0.18c-18.76,0.06-37.52,0.12-56.28,0.18
				c-10.62,0.03-21.25,0.07-31.87,0.1C174.3,162.5,174.3,165,175.91,164.99L175.91,164.99z"/>
		</g>
	</g>
	<g>
		<g>
			<path d="M258.02,219.07c16.73,0.01,33.47,0.01,50.2,0.02c4.8,0,9.6,0,14.4,0.01c1.61,0,1.61-2.5,0-2.5
				c-16.72-0.01-33.44-0.01-50.17-0.02c-4.81,0-9.62,0-14.43-0.01C256.41,216.57,256.41,219.07,258.02,219.07L258.02,219.07z"/>
		</g>
	</g>
	<g>
		<g>
			<path d="M258.02,209.37c16.73,0.01,33.47,0.01,50.2,0.02c4.8,0,9.6,0,14.4,0.01c1.61,0,1.61-2.5,0-2.5
				c-16.72-0.01-33.44-0.01-50.17-0.02c-4.81,0-9.62,0-14.43-0.01C256.41,206.87,256.41,209.37,258.02,209.37L258.02,209.37z"/>
		</g>
	</g>
	<path class="st1" d="M327.22,237.13H175.41c-7.86,0-14.22-6.37-14.22-14.22V60.88c0-7.86,6.37-14.22,14.22-14.22h151.81
		c7.86,0,14.22,6.37,14.22,14.22V222.9C341.45,230.76,335.08,237.13,327.22,237.13z"/>
	<g>
		<path class="st2" d="M194.76,91.84c-4.54-3.05-7.68-9.1-7.68-14.54c0-7.68,6.22-13.9,13.9-13.9s13.9,6.23,13.9,13.9
			c0,5.44-3.14,11.49-7.69,14.54c10.89,2.76,18.96,12.23,18.96,19.23c0,8.28-50.34,8.28-50.34,0
			C175.81,104.07,183.88,94.61,194.76,91.84z M193.92,110.24l7.06,7.04l7.06-7.04l-5.94-14.35h0.06l2.31-2.64
			c-1.12,0.39-2.26,0.64-3.49,0.64c-1.21,0-2.36-0.24-3.49-0.65l2.3,2.65h0.06L193.92,110.24z"/>
	</g>
</g>
</svg>
